<svg width="61" height="55" viewBox="0 0 61 55" fill="none" xmlns="http://www.w3.org/2000/svg">
<g clip-path="url(#clip0_102_1300)">
<path d="M59.4976 20.5389L32.0001 0.561818C31.5846 0.199511 31.0517 -0.00012207 30.5002 -0.00012207C29.9486 -0.00012207 29.4157 0.199511 29.0002 0.561818L1.50201 20.5389C-0.498173 21.7846 0.751681 25.034 3.00198 25.034H8.0014V52.503C7.98121 52.8361 8.03204 53.1698 8.15052 53.4819C8.26901 53.794 8.45244 54.0774 8.68872 54.3134C8.92499 54.5494 9.20871 54.7327 9.52114 54.851C9.83356 54.9694 10.1676 55.0202 10.5011 55H50.4985C50.8321 55.0202 51.1661 54.9694 51.4785 54.851C51.7909 54.7327 52.0747 54.5494 52.3109 54.3134C52.5472 54.0774 52.7306 53.794 52.8491 53.4819C52.9676 53.1698 53.0184 52.8361 52.9982 52.503V25.034H57.9977C60.248 25.034 61.4971 21.7874 59.4976 20.5389ZM30.5002 50.0059C27.5337 50.0059 24.6338 49.1272 22.1672 47.4808C19.7006 45.8345 17.7782 43.4945 16.6429 40.7567C15.5077 38.0189 15.2107 35.0063 15.7894 32.0999C16.3682 29.1935 17.7967 26.5238 19.8943 24.4283C21.992 22.3329 24.6645 20.9059 27.574 20.3278C30.4835 19.7497 33.4993 20.0464 36.24 21.1804C38.9807 22.3145 41.3232 24.2349 42.9713 26.6988C44.6194 29.1628 45.4991 32.0596 45.4991 35.0229C45.4875 38.9931 43.9035 42.7973 41.0932 45.6047C38.2829 48.412 34.4746 49.9943 30.5002 50.0059Z" fill="white"/>
<path d="M34.2496 31.2773V23.7854H26.7504V31.2773H19.2506V38.7684H26.7497V46.2596H34.2489V38.7684H41.748V31.2773H34.2496Z" fill="white"/>
</g>
<defs>
<clipPath id="clip0_102_1300">
<rect width="60" height="55" fill="white" transform="translate(0.5)"/>
</clipPath>
</defs>
</svg>
