<svg width="105" height="17" viewBox="0 0 105 17" fill="none" xmlns="http://www.w3.org/2000/svg">
<path d="M9.26022 0.0632572C9.08686 0.57251 8.91891 1.08718 8.75639 1.60727C8.58302 2.13819 8.40966 2.66911 8.2363 3.20003C8.06294 3.73096 7.88958 4.26188 7.71621 4.7928C7.54285 5.33456 7.36949 5.87632 7.19613 6.41808C6.64353 6.41808 6.0801 6.41808 5.50584 6.41808C4.94241 6.41808 4.37628 6.41808 3.80743 6.41808C3.23859 6.41808 2.67787 6.41808 2.12527 6.41808C1.57268 6.41808 1.03092 6.41808 0.5 6.41808C0.955076 6.74313 1.41015 7.0736 1.86523 7.40949C2.32031 7.74538 2.77538 8.07856 3.23046 8.40903C3.68554 8.73951 4.13519 9.06727 4.57944 9.39233C5.03451 9.71738 5.47875 10.037 5.91216 10.3512C5.7388 10.8713 5.56543 11.4022 5.39207 11.944C5.21871 12.4858 5.04264 13.0275 4.86386 13.5693C4.68508 14.111 4.50901 14.642 4.33564 15.162C4.17312 15.693 4.01059 16.2076 3.84806 16.7061C4.28147 16.3918 4.72029 16.0722 5.16453 15.7471C5.60878 15.4221 6.05843 15.097 6.51351 14.772C6.96859 14.4469 7.42366 14.1165 7.87874 13.7806C8.33382 13.4447 8.78889 13.1088 9.24397 12.7729C9.73155 13.1305 10.2083 13.4772 10.6742 13.8131C11.1293 14.1381 11.5789 14.4632 12.0232 14.7882C12.4674 15.1133 12.9063 15.4329 13.3397 15.7471C13.7731 16.0614 14.2119 16.381 14.6561 16.7061C14.4936 16.1968 14.3257 15.6767 14.1523 15.1458C13.9789 14.6257 13.8056 14.1002 13.6322 13.5693C13.4588 13.0384 13.2855 12.502 13.1121 11.9603C12.9388 11.4293 12.7654 10.893 12.592 10.3512C13.0363 10.0262 13.4914 9.69571 13.9573 9.35982C14.4123 9.02393 14.8701 8.69075 15.3306 8.36028C15.7911 8.0298 16.2435 7.70204 16.6877 7.37699C17.1428 7.05193 17.5816 6.7323 18.0042 6.41808C17.4408 6.41808 16.8719 6.41808 16.2977 6.41808C15.7234 6.41808 15.1518 6.41808 14.583 6.41808C14.0141 6.41808 13.4534 6.41808 12.9008 6.41808C12.3482 6.41808 11.8227 6.41808 11.3243 6.41808L9.26022 0.0632572Z" fill="#FFC700"/>
<path d="M30.7644 0.0632572C30.591 0.57251 30.4231 1.08718 30.2605 1.60727C30.0872 2.13819 29.9138 2.66911 29.7405 3.20003C29.5671 3.73096 29.3937 4.26188 29.2204 4.7928C29.047 5.33456 28.8736 5.87632 28.7003 6.41808C28.1477 6.41808 27.5843 6.41808 27.01 6.41808C26.4466 6.41808 25.8804 6.41808 25.3116 6.41808C24.7427 6.41808 24.182 6.41808 23.6294 6.41808C23.0768 6.41808 22.5351 6.41808 22.0042 6.41808C22.4592 6.74313 22.9143 7.0736 23.3694 7.40949C23.8245 7.74538 24.2795 8.07856 24.7346 8.40903C25.1897 8.73951 25.6393 9.06727 26.0836 9.39233C26.5387 9.71738 26.9829 10.037 27.4163 10.3512C27.2429 10.8713 27.0696 11.4022 26.8962 11.944C26.7229 12.4858 26.5468 13.0275 26.368 13.5693C26.1892 14.111 26.0132 14.642 25.8398 15.162C25.6773 15.693 25.5147 16.2076 25.3522 16.7061C25.7856 16.3918 26.2244 16.0722 26.6687 15.7471C27.1129 15.4221 27.5626 15.097 28.0177 14.772C28.4727 14.4469 28.9278 14.1165 29.3829 13.7806C29.838 13.4447 30.293 13.1088 30.7481 12.7729C31.2357 13.1305 31.7124 13.4772 32.1784 13.8131C32.6334 14.1381 33.0831 14.4632 33.5273 14.7882C33.9716 15.1133 34.4104 15.4329 34.8438 15.7471C35.2772 16.0614 35.716 16.381 36.1603 16.7061C35.9978 16.1968 35.8298 15.6767 35.6564 15.1458C35.4831 14.6257 35.3097 14.1002 35.1364 13.5693C34.963 13.0384 34.7896 12.502 34.6163 11.9603C34.4429 11.4293 34.2695 10.893 34.0962 10.3512C34.5404 10.0262 34.9955 9.69571 35.4614 9.35982C35.9165 9.02393 36.3743 8.69075 36.8348 8.36028C37.2953 8.0298 37.7476 7.70204 38.1919 7.37699C38.6469 7.05193 39.0858 6.7323 39.5083 6.41808C38.9449 6.41808 38.3761 6.41808 37.8018 6.41808C37.2275 6.41808 36.656 6.41808 36.0871 6.41808C35.5183 6.41808 34.9576 6.41808 34.405 6.41808C33.8524 6.41808 33.3269 6.41808 32.8285 6.41808L30.7644 0.0632572Z" fill="#FFC700"/>
<path d="M52.2686 0.0632572C52.0953 0.57251 51.9273 1.08718 51.7648 1.60727C51.5914 2.13819 51.4181 2.66911 51.2447 3.20003C51.0714 3.73096 50.898 4.26188 50.7246 4.7928C50.5513 5.33456 50.3779 5.87632 50.2045 6.41808C49.652 6.41808 49.0885 6.41808 48.5143 6.41808C47.9508 6.41808 47.3847 6.41808 46.8159 6.41808C46.247 6.41808 45.6863 6.41808 45.1337 6.41808C44.5811 6.41808 44.0393 6.41808 43.5084 6.41808C43.9635 6.74313 44.4186 7.0736 44.8737 7.40949C45.3287 7.74538 45.7838 8.07856 46.2389 8.40903C46.694 8.73951 47.1436 9.06727 47.5879 9.39233C48.0429 9.71738 48.4872 10.037 48.9206 10.3512C48.7472 10.8713 48.5739 11.4022 48.4005 11.944C48.2271 12.4858 48.0511 13.0275 47.8723 13.5693C47.6935 14.111 47.5174 14.642 47.3441 15.162C47.1815 15.693 47.019 16.2076 46.8565 16.7061C47.2899 16.3918 47.7287 16.0722 48.173 15.7471C48.6172 15.4221 49.0669 15.097 49.5219 14.772C49.977 14.4469 50.4321 14.1165 50.8872 13.7806C51.3422 13.4447 51.7973 13.1088 52.2524 12.7729C52.74 13.1305 53.2167 13.4772 53.6826 13.8131C54.1377 14.1381 54.5874 14.4632 55.0316 14.7882C55.4759 15.1133 55.9147 15.4329 56.3481 15.7471C56.7815 16.0614 57.2203 16.381 57.6646 16.7061C57.502 16.1968 57.3341 15.6767 57.1607 15.1458C56.9874 14.6257 56.814 14.1002 56.6406 13.5693C56.4673 13.0384 56.2939 12.502 56.1205 11.9603C55.9472 11.4293 55.7738 10.893 55.6005 10.3512C56.0447 10.0262 56.4998 9.69571 56.9657 9.35982C57.4208 9.02393 57.8785 8.69075 58.339 8.36028C58.7995 8.0298 59.2519 7.70204 59.6961 7.37699C60.1512 7.05193 60.59 6.7323 61.0126 6.41808C60.4492 6.41808 59.8803 6.41808 59.3061 6.41808C58.7318 6.41808 58.1603 6.41808 57.5914 6.41808C57.0226 6.41808 56.4619 6.41808 55.9093 6.41808C55.3567 6.41808 54.8312 6.41808 54.3327 6.41808L52.2686 0.0632572Z" fill="#FFC700"/>
<path d="M95.2769 0.0632572C95.1036 0.57251 94.9356 1.08718 94.7731 1.60727C94.5997 2.13819 94.4264 2.66911 94.253 3.20003C94.0797 3.73096 93.9063 4.26188 93.7329 4.7928C93.5596 5.33456 93.3862 5.87632 93.2128 6.41808C92.6603 6.41808 92.0968 6.41808 91.5226 6.41808C90.9591 6.41808 90.393 6.41808 89.8242 6.41808C89.2553 6.41808 88.6946 6.41808 88.142 6.41808C87.5894 6.41808 87.0476 6.41808 86.5167 6.41808C86.9718 6.74313 87.4269 7.0736 87.882 7.40949C88.337 7.74538 88.7921 8.07856 89.2472 8.40903C89.7023 8.73951 90.1519 9.06727 90.5962 9.39233C91.0512 9.71738 91.4955 10.037 91.9289 10.3512C91.7555 10.8713 91.5822 11.4022 91.4088 11.944C91.2354 12.4858 91.0594 13.0275 90.8806 13.5693C90.7018 14.111 90.5257 14.642 90.3524 15.162C90.1898 15.693 90.0273 16.2076 89.8648 16.7061C90.2982 16.3918 90.737 16.0722 91.1813 15.7471C91.6255 15.4221 92.0752 15.097 92.5302 14.772C92.9853 14.4469 93.4404 14.1165 93.8955 13.7806C94.3505 13.4447 94.8056 13.1088 95.2607 12.7729C95.7483 13.1305 96.225 13.4772 96.6909 13.8131C97.146 14.1381 97.5957 14.4632 98.0399 14.7882C98.4842 15.1133 98.923 15.4329 99.3564 15.7471C99.7898 16.0614 100.229 16.381 100.673 16.7061C100.51 16.1968 100.342 15.6767 100.169 15.1458C99.9957 14.6257 99.8223 14.1002 99.6489 13.5693C99.4756 13.0384 99.3022 12.502 99.1288 11.9603C98.9555 11.4293 98.7821 10.893 98.6088 10.3512C99.053 10.0262 99.5081 9.69571 99.974 9.35982C100.429 9.02393 100.887 8.69075 101.347 8.36028C101.808 8.0298 102.26 7.70204 102.704 7.37699C103.16 7.05193 103.598 6.7323 104.021 6.41808C103.457 6.41808 102.889 6.41808 102.314 6.41808C101.74 6.41808 101.169 6.41808 100.6 6.41808C100.031 6.41808 99.4702 6.41808 98.9176 6.41808C98.365 6.41808 97.8395 6.41808 97.341 6.41808L95.2769 0.0632572Z" fill="#FFC700"/>
<path d="M73.7728 0.0632572C73.5994 0.57251 73.4315 1.08718 73.269 1.60727C73.0956 2.13819 72.9222 2.66911 72.7489 3.20003C72.5755 3.73096 72.4021 4.26188 72.2288 4.7928C72.0554 5.33456 71.8821 5.87632 71.7087 6.41808C71.1561 6.41808 70.5927 6.41808 70.0184 6.41808C69.455 6.41808 68.8888 6.41808 68.32 6.41808C67.7512 6.41808 67.1904 6.41808 66.6378 6.41808C66.0853 6.41808 65.5435 6.41808 65.0126 6.41808C65.4676 6.74313 65.9227 7.0736 66.3778 7.40949C66.8329 7.74538 67.288 8.07856 67.743 8.40903C68.1981 8.73951 68.6478 9.06727 69.092 9.39233C69.5471 9.71738 69.9913 10.037 70.4247 10.3512C70.2514 10.8713 70.078 11.4022 69.9046 11.944C69.7313 12.4858 69.5552 13.0275 69.3764 13.5693C69.1977 14.111 69.0216 14.642 68.8482 15.162C68.6857 15.693 68.5232 16.2076 68.3606 16.7061C68.794 16.3918 69.2329 16.0722 69.6771 15.7471C70.1213 15.4221 70.571 15.097 71.0261 14.772C71.4812 14.4469 71.9362 14.1165 72.3913 13.7806C72.8464 13.4447 73.3015 13.1088 73.7565 12.7729C74.2441 13.1305 74.7209 13.4772 75.1868 13.8131C75.6419 14.1381 76.0915 14.4632 76.5358 14.7882C76.98 15.1133 77.4188 15.4329 77.8522 15.7471C78.2856 16.0614 78.7245 16.381 79.1687 16.7061C79.0062 16.1968 78.8382 15.6767 78.6649 15.1458C78.4915 14.6257 78.3181 14.1002 78.1448 13.5693C77.9714 13.0384 77.7981 12.502 77.6247 11.9603C77.4513 11.4293 77.278 10.893 77.1046 10.3512C77.5488 10.0262 78.0039 9.69571 78.4698 9.35982C78.9249 9.02393 79.3827 8.69075 79.8432 8.36028C80.3037 8.0298 80.7561 7.70204 81.2003 7.37699C81.6554 7.05193 82.0942 6.7323 82.5168 6.41808C81.9533 6.41808 81.3845 6.41808 80.8102 6.41808C80.236 6.41808 79.6644 6.41808 79.0956 6.41808C78.5267 6.41808 77.966 6.41808 77.4134 6.41808C76.8608 6.41808 76.3353 6.41808 75.8369 6.41808L73.7728 0.0632572Z" fill="#FFC700"/>
</svg>
