<svg width="61" height="57" viewBox="0 0 61 57" fill="none" xmlns="http://www.w3.org/2000/svg">
<path d="M18.8894 56.4999C18.7253 56.5 18.563 56.4672 18.4114 56.4033C18.2598 56.3394 18.1217 56.2456 18.0057 56.1275C17.8896 56.0092 17.7975 55.8688 17.7348 55.7143C17.672 55.5598 17.6399 55.3943 17.6401 55.2271C17.64 55.06 17.6724 54.8945 17.7352 54.7402C17.7979 54.5858 17.8897 54.4456 18.0057 54.3275C18.24 54.0887 18.5579 53.9544 18.8894 53.9542C19.2443 53.9638 19.5969 53.895 19.9232 53.7528C20.2495 53.6105 20.5416 53.3979 20.7797 53.1298C22.209 51.5967 22.5879 48.3481 22.643 46.3179H5.13633C3.81079 46.3163 2.53995 45.7795 1.60264 44.8252C0.665344 43.8708 0.138119 42.5769 0.136597 41.2273V5.59134C0.138119 4.24171 0.665344 2.94777 1.60264 1.99343C2.53995 1.03909 3.81079 0.502283 5.13633 0.500732H55.1361C56.4615 0.502504 57.7321 1.03934 58.6693 1.99363C59.6066 2.94792 60.1341 4.24178 60.1358 5.59134V41.2273C60.1341 42.5768 59.6066 43.8707 58.6693 44.825C57.7321 45.7793 56.4615 46.3161 55.1361 46.3179H37.629C37.6832 48.3531 38.0671 51.6052 39.4931 53.1316C39.731 53.3998 40.0232 53.6121 40.3496 53.754C40.676 53.8959 41.029 53.9639 41.3838 53.9534C41.5479 53.9533 41.7105 53.9862 41.8622 54.0502C42.0138 54.1143 42.1512 54.2083 42.2671 54.3267C42.5016 54.5652 42.6337 54.8887 42.6339 55.2262C42.6339 55.3935 42.6013 55.559 42.5384 55.7135C42.4755 55.868 42.3833 56.0084 42.2671 56.1266C42.1512 56.2449 42.0134 56.3388 41.8618 56.4027C41.7101 56.4666 41.5479 56.4993 41.3838 56.4991L18.8894 56.4999ZM27.6323 41.2273C27.6334 41.904 27.8979 42.5527 28.3679 43.0311C28.838 43.5096 29.4751 43.7788 30.1398 43.7797C30.8044 43.7788 31.4413 43.5096 31.9113 43.0311C32.3812 42.5526 32.6456 41.9039 32.6465 41.2273C32.6456 40.5505 32.3816 39.9018 31.9117 39.4232C31.4418 38.9446 30.8045 38.6751 30.1398 38.674C29.4751 38.6751 28.838 38.9444 28.3679 39.423C27.8979 39.9016 27.6334 40.5504 27.6323 41.2273ZM5.13954 36.1367H55.1425V5.59134H5.14275L5.13954 36.1367ZM7.94803 33.0687V7.96299H52.3316V33.0687H7.94803Z" fill="white"/>
</svg>
