<svg width="59" height="59" viewBox="0 0 59 59" fill="none" xmlns="http://www.w3.org/2000/svg">
<path d="M57.0496 32.625C55.9923 31.7565 54.7934 31.36 53.4529 31.4355C52.1124 31.5111 50.9701 32.0397 50.0261 33.0215L45.0417 38.4023C44.7397 37.4583 44.1921 36.6559 43.3992 35.9951C42.6062 35.3343 41.6811 34.9473 40.6238 34.834C41.0391 34.5319 41.4639 34.2109 41.8982 33.8711C42.3324 33.5312 42.7384 33.1536 43.116 32.7383C44.8907 30.9635 46.2595 28.9434 47.2224 26.6777C48.1853 24.4121 48.6667 22.0332 48.6667 19.541C48.6667 16.9733 48.1759 14.5378 47.1941 12.2344C46.2123 9.96875 44.8624 7.97689 43.1443 6.25879C41.4262 4.54069 39.4343 3.19075 37.1687 2.20898C34.8653 1.22721 32.4298 0.736328 29.8621 0.736328C27.2944 0.736328 24.8777 1.22721 22.6121 2.20898C20.3464 3.19075 18.364 4.54069 16.6648 6.25879C14.9656 7.97689 13.6251 9.96875 12.6433 12.2344C11.6615 14.5 11.1707 16.9355 11.1707 19.541C11.1707 21.8822 11.586 24.1195 12.4167 26.2529C13.2475 28.3864 14.4369 30.3027 15.9851 32.002C15.5697 32.2285 15.1638 32.474 14.7673 32.7383C14.3708 33.0026 14.0027 33.2858 13.6628 33.5879C13.172 32.946 12.5678 32.4268 11.8503 32.0303C11.1329 31.6338 10.3399 31.4355 9.47144 31.4355H2.56128C2.10815 31.4355 1.71167 31.596 1.37183 31.917C1.03198 32.238 0.862061 32.6439 0.862061 33.1348V57.0371C0.862061 57.4902 1.03198 57.8867 1.37183 58.2266C1.71167 58.5664 2.10815 58.7363 2.56128 58.7363H9.47144C10.5665 58.7363 11.5577 58.4154 12.4451 57.7734C13.3324 57.1315 13.946 56.3008 14.2859 55.2812C14.3236 55.319 14.3708 55.3379 14.4275 55.3379C14.4841 55.3379 14.5313 55.3379 14.5691 55.3379H40.1707C42.0209 55.3379 43.7862 54.9131 45.4666 54.0635C47.1469 53.2139 48.5535 52.0527 49.6863 50.5801L57.8425 39.5918C58.6355 38.4967 58.9565 37.279 58.8054 35.9385C58.6544 34.598 58.0691 33.4935 57.0496 32.625ZM11.1707 53.6387C11.1707 54.0918 11.0007 54.4883 10.6609 54.8281C10.321 55.168 9.92456 55.3379 9.47144 55.3379H4.2605V34.834H9.47144C9.92456 34.834 10.321 34.9945 10.6609 35.3154C11.0007 35.6364 11.1707 36.0423 11.1707 36.5332V53.6387ZM14.5691 19.541C14.5691 17.4264 14.9656 15.4251 15.7585 13.5371C16.5893 11.6491 17.6938 10.0159 19.072 8.6377C20.4503 7.25944 22.0645 6.15495 23.9148 5.32422C25.7651 4.53125 27.7475 4.13477 29.8621 4.13477C31.9766 4.13477 33.9779 4.53125 35.866 5.32422C37.7162 6.15495 39.3399 7.25944 40.7371 8.6377C42.1342 10.0159 43.2481 11.6491 44.0789 13.5371C44.8718 15.4251 45.2683 17.4264 45.2683 19.541C45.2683 21.5423 44.8907 23.4492 44.1355 25.2617C43.3803 27.0742 42.3513 28.6602 41.0486 30.0195C39.7458 31.3789 38.226 32.4928 36.489 33.3613C34.7143 34.1921 32.8263 34.6641 30.825 34.7773C30.6739 34.7396 30.5323 34.6924 30.4001 34.6357C30.268 34.5791 30.1453 34.4941 30.032 34.3809L29.239 33.7012C27.8796 32.4928 26.3598 31.6527 24.6794 31.1807C22.9991 30.7087 21.3093 30.6048 19.6101 30.8691C18.0242 29.4342 16.7875 27.7256 15.9001 25.7432C15.0128 23.7607 14.5691 21.6934 14.5691 19.541ZM55.1238 37.5527L46.9675 48.541C46.1746 49.5983 45.1739 50.429 43.9656 51.0332C42.7572 51.6374 41.4923 51.9395 40.1707 51.9395H14.5691V37.2695L15.7585 36.25C17.3445 34.8529 19.2136 34.1543 21.366 34.1543C23.5183 34.1543 25.3875 34.8529 26.9734 36.25C27.2755 36.5143 27.738 36.9108 28.3611 37.4395C28.9841 37.9681 29.4845 38.2324 29.8621 38.2324C30.5795 38.2324 32.3637 38.2324 35.2146 38.2324C38.0655 38.2324 39.7175 38.2324 40.1707 38.2324C40.6615 38.2324 41.0675 38.3929 41.3884 38.7139C41.7094 39.0348 41.8699 39.4408 41.8699 39.9316C41.8699 40.3848 41.7094 40.7812 41.3884 41.1211C41.0675 41.4609 40.6615 41.6309 40.1707 41.6309C39.8686 41.6309 39.1322 41.6309 37.9617 41.6309C36.7533 41.6309 35.46 41.6309 34.0818 41.6309C32.7035 41.6309 31.4291 41.6309 30.2585 41.6309C29.0502 41.6309 28.295 41.6309 27.9929 41.6309C27.5398 41.6309 27.1433 41.7913 26.8035 42.1123C26.4636 42.4333 26.2937 42.8392 26.2937 43.3301C26.2937 43.7832 26.4636 44.1797 26.8035 44.5195C27.1433 44.8594 27.5398 45.0293 27.9929 45.0293C28.446 45.0293 29.1824 45.0293 30.2019 45.0293C31.2214 45.0293 34.922 45.0293 41.3035 45.0293C42.0209 45.0293 42.7006 44.8877 43.3425 44.6045C43.9845 44.3213 44.5509 43.9154 45.0417 43.3867L52.5183 35.3438C52.8204 35.0417 53.1886 34.8717 53.6228 34.834C54.057 34.7962 54.4441 34.9095 54.7839 35.1738C55.1615 35.4382 55.3787 35.8063 55.4353 36.2783C55.4919 36.7503 55.3881 37.1751 55.1238 37.5527ZM29.8621 17.8418C29.4089 17.8418 29.0125 17.6719 28.6726 17.332C28.3328 16.9922 28.1628 16.5957 28.1628 16.1426C28.1628 15.765 28.2667 15.4346 28.4744 15.1514C28.682 14.8682 28.9558 14.6699 29.2957 14.5566C29.711 14.3678 30.1641 14.3773 30.655 14.585C31.1459 14.7926 31.6179 15.1608 32.071 15.6895C32.3731 16.0671 32.7602 16.2747 33.2322 16.3125C33.7042 16.3503 34.1101 16.2181 34.45 15.916C34.8276 15.6139 35.0352 15.2269 35.073 14.7549C35.1108 14.2829 34.9786 13.877 34.6765 13.5371C34.2234 12.9707 33.7325 12.5081 33.2039 12.1494C32.6752 11.7907 32.1277 11.5169 31.5613 11.3281V9.3457C31.5613 8.85482 31.3914 8.44889 31.0515 8.12793C30.7117 7.80696 30.3152 7.64648 29.8621 7.64648C29.4089 7.64648 29.0125 7.80696 28.6726 8.12793C28.3328 8.44889 28.1628 8.85482 28.1628 9.3457V11.3281C28.1628 11.3281 28.1534 11.3281 28.1345 11.3281C28.1156 11.3281 28.1062 11.3281 28.1062 11.3281C27.1244 11.7057 26.322 12.3288 25.699 13.1973C25.0759 14.0658 24.7644 15.0475 24.7644 16.1426C24.7644 17.5397 25.2647 18.7386 26.2654 19.7393C27.266 20.7399 28.4649 21.2402 29.8621 21.2402C30.3152 21.2402 30.7117 21.4007 31.0515 21.7217C31.3914 22.0426 31.5613 22.4486 31.5613 22.9395C31.5613 23.2793 31.4669 23.5908 31.2781 23.874C31.0893 24.1572 30.8438 24.3555 30.5417 24.4688C30.1641 24.6576 29.7488 24.6859 29.2957 24.5537C28.8425 24.4216 28.4083 24.1478 27.9929 23.7324C27.6908 23.3926 27.3038 23.2321 26.8318 23.251C26.3598 23.2699 25.9539 23.4492 25.614 23.7891C25.2742 24.1289 25.1137 24.5254 25.1326 24.9785C25.1514 25.4316 25.3308 25.8281 25.6707 26.168C26.0483 26.5456 26.4447 26.8665 26.8601 27.1309C27.2755 27.3952 27.7097 27.6029 28.1628 27.7539V29.7363C28.1628 30.1895 28.3233 30.5859 28.6443 30.9258C28.9653 31.2656 29.3712 31.4355 29.8621 31.4355C30.3152 31.4355 30.7117 31.2656 31.0515 30.9258C31.3914 30.5859 31.5613 30.1895 31.5613 29.7363V27.7539C31.599 27.7161 31.6462 27.6878 31.7029 27.6689C31.7595 27.6501 31.8067 27.6406 31.8445 27.6406C32.7885 27.2253 33.5437 26.5928 34.1101 25.7432C34.6765 24.8936 34.9597 23.959 34.9597 22.9395C34.9597 21.5423 34.4594 20.3434 33.4587 19.3428C32.4581 18.3421 31.2592 17.8418 29.8621 17.8418Z" fill="#1E949E"/>
</svg>
