<svg width="50" height="36" viewBox="0 0 50 36" fill="none" xmlns="http://www.w3.org/2000/svg">
<path d="M11.9844 0.938965C5.65055 0.938965 0.5 6.09095 0.5 12.4233C0.5 18.2048 4.79267 23.0021 10.361 23.7928C9.91518 27.0312 8.67869 30.1125 6.74683 32.7846C6.3711 33.306 6.38517 34.0126 6.78607 34.5173C7.17941 35.0139 7.86292 35.2021 8.46279 34.9491C17.5779 31.1444 23.4688 22.3011 23.4688 12.4233C23.4688 6.09095 18.3182 0.938965 11.9844 0.938965ZM38.0156 0.938965C31.6818 0.938965 26.5312 6.09095 26.5312 12.4233C26.5312 18.2048 30.8239 23.0021 36.3922 23.7928C35.9464 27.0312 34.7099 30.1125 32.7781 32.7846C32.4024 33.306 32.4164 34.0126 32.8173 34.5173C33.2107 35.0139 33.8942 35.2021 34.494 34.9491C43.6092 31.1444 49.5 22.3011 49.5 12.4233C49.5 6.09095 44.3494 0.938965 38.0156 0.938965Z" fill="url(#paint0_linear_188_2513)"/>
<defs>
<linearGradient id="paint0_linear_188_2513" x1="25" y1="35.0613" x2="25" y2="0.938965" gradientUnits="userSpaceOnUse">
<stop stop-color="#148089"/>
<stop offset="1" stop-color="#8BD7DE"/>
</linearGradient>
</defs>
</svg>
