<svg width="42" height="42" viewBox="0 0 42 42" fill="none" xmlns="http://www.w3.org/2000/svg">
<g clip-path="url(#clip0_199_219)">
<path d="M41.139 0.00513048C32.9402 -0.14187 23.59 4.14388 17.6715 10.7921C12.0155 10.8989 6.50821 13.2176 2.45346 17.2724C2.21721 17.5051 2.13321 17.8534 2.23646 18.1684C2.34146 18.4851 2.61446 18.7144 2.94346 18.7616L9.68796 19.7276L8.85496 20.6604C8.54521 21.0069 8.56096 21.5336 8.88996 21.8626L20.1372 33.1099C20.307 33.2796 20.531 33.3654 20.7567 33.3654C20.965 33.3654 21.1732 33.2919 21.3395 33.1431L22.2722 32.3101L23.2382 39.0546C23.2855 39.3836 23.5445 39.6251 23.8577 39.7301C23.9382 39.7564 24.0222 39.7686 24.108 39.7686C24.3565 39.7686 24.6102 39.6601 24.7852 39.4869C28.784 35.4881 31.1027 29.9809 31.2095 24.3249C37.8647 18.3941 42.1855 9.04738 41.9947 0.85913C41.9825 0.39363 41.6062 0.0173805 41.139 0.00513048ZM33.075 15.1111C32.2227 15.9634 31.1027 16.3904 29.981 16.3904C28.8592 16.3904 27.7392 15.9634 26.887 15.1111C25.1825 13.4049 25.1825 10.6294 26.887 8.92313C28.5932 7.21688 31.3687 7.21688 33.075 8.92313C34.7812 10.6294 34.7812 13.4066 33.075 15.1111Z" fill="#1E949E"/>
<path d="M4.76698 29.5838C2.89448 31.4563 0.323728 39.9158 0.0367284 40.8731C-0.0560216 41.1811 0.0297284 41.5153 0.255478 41.7428C0.423478 41.9108 0.645728 42.0001 0.874978 42.0001C0.958978 42.0001 1.04298 41.9878 1.12698 41.9633C2.08423 41.6763 10.5437 39.1056 12.4162 37.2331C14.525 35.1243 14.525 31.6926 12.4162 29.5838C10.3057 27.4751 6.87573 27.4768 4.76698 29.5838Z" fill="#1E949E"/>
</g>
<defs>
<clipPath id="clip0_199_219">
<rect width="42" height="42" fill="white"/>
</clipPath>
</defs>
</svg>
