<svg width="59" height="58" viewBox="0 0 59 58" fill="none" xmlns="http://www.w3.org/2000/svg">
<path d="M25.546 23.5625V12.6875C25.546 11.6 24.821 10.875 23.7335 10.875C22.646 10.875 21.921 11.6 21.921 12.6875V21.75H12.8585C11.771 21.75 11.046 22.475 11.046 23.5625C11.046 24.65 11.771 25.375 12.8585 25.375H23.7335C24.821 25.375 25.546 24.65 25.546 23.5625ZM47.296 19.9375H46.9335C45.3023 8.7 35.3335 0 23.7335 0C10.6835 0 0.171021 10.5125 0.171021 23.5625C0.171021 36.6125 10.6835 47.125 23.7335 47.125H23.9148C24.096 47.85 24.2773 48.3937 24.821 48.9375C24.2773 49.8438 23.7335 50.75 23.7335 51.6562C23.7335 55.2812 28.446 58 34.6085 58C40.771 58 45.4835 55.2812 45.4835 51.6562C45.4835 50.75 45.121 49.8438 44.396 48.9375L44.5773 48.7562C45.4835 48.9375 46.3898 48.9375 47.296 48.9375C53.4585 48.9375 58.171 46.2188 58.171 42.5938C58.171 41.6875 57.8085 40.7812 57.0835 39.875C57.8085 38.9688 58.171 38.0625 58.171 37.1562C58.171 36.25 57.8085 35.3438 57.0835 34.4375C57.8085 33.5312 58.171 32.625 58.171 31.7188C58.171 30.8125 57.8085 29.9062 57.0835 29C57.8085 28.0938 58.171 27.1875 58.171 26.2812C58.171 22.6562 53.4585 19.9375 47.296 19.9375ZM54.546 37.1562C54.546 38.0625 51.8273 39.875 47.296 39.875C46.571 39.875 46.0273 39.875 45.3023 39.6937C45.121 39.15 44.9398 38.6063 44.396 38.0625L44.5773 37.8812C45.4835 38.0625 46.3898 38.0625 47.296 38.0625C50.0148 38.0625 52.371 37.5188 54.3648 36.6125C54.546 36.7938 54.546 36.975 54.546 37.1562ZM40.4085 47.6687C39.1398 48.3937 37.146 48.9375 34.6085 48.9375C30.0773 48.9375 27.3585 47.125 27.3585 46.2188C27.3585 46.0375 27.3585 45.8563 27.5398 45.675C29.3523 46.5813 31.8898 47.125 34.6085 47.125C37.3273 47.125 39.6835 46.5813 41.6773 45.675C41.8585 45.8563 41.8585 46.0375 41.8585 46.0375V46.5813C41.6773 46.7625 41.6773 46.9437 41.496 47.125C40.9523 47.125 40.5898 47.3062 40.4085 47.6687ZM37.5085 32.8063C37.6898 32.8063 37.6898 32.9875 37.871 32.9875H38.2335C40.4085 33.5312 41.6773 34.4375 41.6773 35.1625C41.6773 35.1625 41.6773 35.3438 41.496 35.3438V35.7063C41.3148 35.8875 40.9523 36.25 40.5898 36.4313C39.6835 37.3375 37.5085 38.0625 34.6085 38.0625C30.0773 38.0625 27.3585 36.25 27.3585 35.3438C27.3585 34.4375 30.0773 32.625 34.6085 32.625C35.696 32.625 36.7835 32.8063 37.5085 32.8063ZM40.771 42.05C39.5023 42.775 37.3273 43.5 34.6085 43.5C30.0773 43.5 27.3585 41.6875 27.3585 40.7812C27.3585 40.6 27.3585 40.4188 27.5398 40.2375C29.3523 41.1438 31.8898 41.6875 34.6085 41.6875C37.3273 41.6875 39.6835 41.1438 41.6773 40.2375C41.8585 40.4188 41.8585 40.4188 41.8585 40.6C41.8585 40.6 41.8585 40.7812 41.6773 40.7812V41.1438C41.496 41.5063 41.3148 41.6875 40.771 42.05ZM54.546 31.7188C54.546 32.0812 54.1835 32.4438 53.4585 32.9875C52.371 33.7125 50.196 34.4375 47.296 34.4375C46.571 34.4375 46.0273 34.4375 45.3023 34.2562C45.121 33.5312 44.7585 32.9875 44.2148 32.2625C45.121 32.4437 46.2085 32.4437 47.1148 32.4437C49.8335 32.4437 52.1898 31.9 54.1835 30.9938C54.546 31.3563 54.546 31.5375 54.546 31.7188ZM54.546 26.2812C54.546 26.6437 54.1835 27.0063 53.6398 27.3688C53.4585 27.3688 53.4585 27.55 53.2773 27.55C52.1898 28.275 50.0148 29 47.296 29C44.5773 29 42.4023 28.275 41.1335 27.55L40.9523 27.3688C40.4085 27.0063 40.046 26.4625 40.046 26.2812C40.046 25.375 42.0398 24.1063 45.4835 23.7438C46.0273 23.7438 46.571 23.5625 47.1148 23.5625C51.8273 23.5625 54.546 25.375 54.546 26.2812ZM3.79602 23.5625C3.79602 12.5063 12.6773 3.625 23.7335 3.625C33.521 3.625 41.8585 10.875 43.3085 20.3C39.1398 21.2062 36.421 23.3813 36.421 26.2812C36.421 27.1875 36.7835 28.0938 37.3273 29C37.3273 29 37.3273 29.1813 37.146 29.1813C36.421 29 35.5148 29 34.6085 29C28.446 29 23.7335 31.7188 23.7335 35.3438C23.7335 36.25 24.096 37.3375 24.821 38.0625C24.2773 38.9688 23.7335 39.875 23.7335 40.7812C23.7335 41.6875 24.096 42.5938 24.6398 43.5H23.7335C12.6773 43.5 3.79602 34.6188 3.79602 23.5625ZM34.6085 54.375C30.0773 54.375 27.3585 52.5625 27.3585 51.6562C27.3585 51.475 27.3585 51.2938 27.5398 51.1125C29.3523 52.0188 31.8898 52.5625 34.6085 52.5625C37.3273 52.5625 39.6835 52.0188 41.6773 51.1125C41.8585 51.2938 41.8585 51.475 41.8585 51.6562C41.8585 52.5625 39.1398 54.375 34.6085 54.375ZM47.296 45.3125C46.571 45.3125 46.0273 45.3125 45.3023 45.1312C45.121 44.5875 44.9398 44.0438 44.396 43.5L44.5773 43.3187C45.4835 43.5 46.3898 43.5 47.296 43.5C50.0148 43.5 52.371 42.9563 54.3648 42.05C54.546 42.2313 54.546 42.4125 54.546 42.5938C54.546 43.5 51.8273 45.3125 47.296 45.3125Z" fill="#1E949E"/>
</svg>
