<svg width="42" height="42" viewBox="0 0 42 42" fill="none" xmlns="http://www.w3.org/2000/svg">
<path d="M39.1362 34.3637H32.4544C28.2439 34.3637 24.8182 30.938 24.8182 26.7275C24.8182 22.5169 28.2439 19.0913 32.4544 19.0913H39.1362C39.6638 19.0913 40.0907 18.6643 40.0907 18.1367V15.2731C40.0907 13.2715 38.5381 11.6436 36.5765 11.4858L31.0945 1.91063C30.5865 1.02507 29.7661 0.392127 28.7845 0.129303C27.8076 -0.131731 26.786 0.00536342 25.9116 0.514277L7.11907 11.455H3.81852C1.71279 11.455 0.000366211 13.1673 0.000366211 15.2731V38.1818C0.000366211 40.2876 1.7127 42 3.81852 42H36.2726C38.3783 42 40.0907 40.2877 40.0907 38.1818V35.3183C40.0907 34.7906 39.6638 34.3637 39.1362 34.3637ZM32.2783 7.82216L34.3582 11.455H26.0384L32.2783 7.82216ZM10.9133 11.455L26.8727 2.16415C27.3042 1.91153 27.8085 1.84441 28.2905 1.9731C28.778 2.10357 29.1845 2.41865 29.4371 2.85956L29.4391 2.86305L14.6817 11.455H10.9133Z" fill="#1E949E"/>
<path d="M39.1361 21.0002H32.4544C29.2962 21.0002 26.7272 23.5692 26.7272 26.7274C26.7272 29.8856 29.2962 32.4546 32.4544 32.4546H39.1361C40.7152 32.4546 41.9997 31.1701 41.9997 29.591V23.8638C41.9997 22.2847 40.7152 21.0002 39.1361 21.0002ZM32.4544 28.6365C31.402 28.6365 30.5453 27.7798 30.5453 26.7274C30.5453 25.6751 31.402 24.8184 32.4544 24.8184C33.5067 24.8184 34.3634 25.6751 34.3634 26.7274C34.3635 27.7798 33.5068 28.6365 32.4544 28.6365Z" fill="#1E949E"/>
</svg>
