<svg width="61" height="61" viewBox="0 0 61 61" fill="none" xmlns="http://www.w3.org/2000/svg">
<g clip-path="url(#clip0_102_1319)">
<path d="M46.125 60.4992H44.8747C43.7147 60.498 42.6026 60.0366 41.7824 59.2164C40.9621 58.3961 40.5008 57.284 40.4995 56.124V50.4994H34.8748C33.715 50.4981 32.603 50.0368 31.7828 49.2168C30.9626 48.3967 30.5011 47.2848 30.4996 46.125V44.8747C30.5009 43.7147 30.9623 42.6026 31.7825 41.7824C32.6027 40.9621 33.7148 40.5008 34.8748 40.4995H40.4995V34.8748C40.5008 33.7148 40.9621 32.6027 41.7824 31.7825C42.6026 30.9623 43.7147 30.5009 44.8747 30.4996H46.125C47.285 30.5009 48.3971 30.9623 49.2173 31.7825C50.0375 32.6027 50.4989 33.7148 50.5002 34.8748V40.4995H56.1248C57.2848 40.5008 58.3969 40.9621 59.2172 41.7824C60.0374 42.6026 60.4988 43.7147 60.5 44.8747V46.125C60.4988 47.285 60.0374 48.3971 59.2172 49.2173C58.3969 50.0375 57.2848 50.4989 56.1248 50.5002H50.4994V56.1248C50.4979 57.2845 50.0365 58.3963 49.2165 59.2164C48.3965 60.0364 47.2847 60.4977 46.125 60.4992Z" fill="white"/>
<path d="M23.1552 25.0402C30.2265 25.0402 35.959 19.5467 35.959 12.7701C35.959 5.99352 30.2265 0.5 23.1552 0.5C16.0839 0.5 10.3514 5.99352 10.3514 12.7701C10.3514 19.5467 16.0839 25.0402 23.1552 25.0402Z" fill="white"/>
<path d="M25.5001 46.125V44.8747C25.5039 42.3895 26.4928 40.0073 28.2501 38.25C30.0074 36.4927 32.3896 35.5038 34.8748 35.5H35.4999V34.8748C35.5044 33.541 35.7959 32.2237 36.3546 31.0124C35.2655 30.6887 34.1371 30.5162 33.001 30.4996H12.9996C9.68452 30.4996 6.50519 31.8166 4.16106 34.1607C1.81692 36.5048 0.5 39.6842 0.5 42.9993L0.5 51.1237C0.500213 51.6208 0.697785 52.0975 1.0493 52.449C1.40081 52.8005 1.87751 52.9981 2.37462 52.9983H28.5495C27.5917 52.127 26.8258 51.0657 26.3008 49.882C25.7757 48.6983 25.503 47.4183 25.5001 46.1234V46.125Z" fill="white"/>
</g>
<defs>
<clipPath id="clip0_102_1319">
<rect width="60" height="60" fill="white" transform="translate(0.5 0.5)"/>
</clipPath>
</defs>
</svg>
