<svg width="24" height="24" viewBox="0 0 24 24" fill="none" xmlns="http://www.w3.org/2000/svg">
<path d="M2.58605 2.76C3.31832 2.02774 4.47726 1.98152 5.26281 2.62231L5.41418 2.76L12.0001 9.34594L18.5861 2.76L18.7374 2.62231C19.523 1.98152 20.6819 2.02774 21.4142 2.76C22.1464 3.49227 22.1927 4.65121 21.5519 5.43676L21.4142 5.58813L14.8282 12.1741L21.4142 18.76L21.5519 18.9114C22.1927 19.6969 22.1464 20.8559 21.4142 21.5881C20.6819 22.3204 19.523 22.3666 18.7374 21.7258L18.5861 21.5881L12.0001 15.0022L5.41418 21.5881C4.63313 22.3692 3.3671 22.3692 2.58605 21.5881C1.80501 20.8071 1.80501 19.5411 2.58605 18.76L9.17199 12.1741L2.58605 5.58813L2.44836 5.43676C1.80757 4.65121 1.85379 3.49227 2.58605 2.76Z" fill="#1E949E"/>
</svg>
