<svg width="42" height="42" viewBox="0 0 42 42" fill="none" xmlns="http://www.w3.org/2000/svg">
<path d="M18.7014 8.93533L19.5013 10.3235C19.6384 10.5584 19.5571 10.8584 19.3222 10.9933C19.0874 11.1305 18.7874 11.0491 18.6525 10.8166L17.8479 9.42375C16.3226 10.3794 15.0227 11.6676 14.0554 13.1861L15.4668 13.9999C15.7017 14.1371 15.7808 14.4371 15.6459 14.6719C15.5087 14.9068 15.2088 14.9859 14.9739 14.851L13.5601 14.0349C12.7393 15.5882 12.244 17.3415 12.1696 19.2017H13.8089C14.081 19.2017 14.2995 19.4226 14.2995 19.6946C14.2995 19.9667 14.0809 20.1853 13.8089 20.1853H12.1696C12.2277 21.6106 12.53 22.971 13.0369 24.2266C16.1714 24.3266 19.1245 25.3218 20.9546 28.1796C22.366 28.8516 23.7798 29.5236 25.1936 30.1957C25.9889 30.4724 26.533 30.9491 26.8446 31.5351C27.9444 31.2956 28.9884 30.9096 29.9558 30.3957L29.1885 29.0656C29.0514 28.8308 29.1327 28.5308 29.3676 28.3936C29.6025 28.2588 29.9024 28.3379 30.0373 28.5727L30.8046 29.9005C32.3044 28.9378 33.5787 27.6519 34.5297 26.1428L33.2229 25.3871C32.988 25.2523 32.909 24.95 33.0438 24.7151C33.181 24.4826 33.481 24.4012 33.7158 24.5384L35.0203 25.2895C35.8226 23.7525 36.3038 22.0224 36.3782 20.1854H34.5715C34.2994 20.1854 34.0786 19.9668 34.0786 19.6948C34.0786 19.4228 34.2995 19.2019 34.5715 19.2019H36.3782C36.3038 17.3649 35.8225 15.6348 35.0203 14.0978L33.7158 14.8512C33.481 14.986 33.181 14.907 33.0438 14.6721C32.909 14.4373 32.988 14.1373 33.2229 14.0001L34.5297 13.2466C33.5787 11.7376 32.3044 10.4517 30.8046 9.48896L30.0373 10.8167C29.9024 11.0493 29.6025 11.1307 29.3676 10.9934C29.1327 10.8586 29.0514 10.5586 29.1885 10.3237L29.9558 8.99366C28.4165 8.17515 26.6818 7.67755 24.8378 7.59388V9.15879C24.8378 9.43088 24.6169 9.64942 24.3448 9.64942C24.0727 9.64942 23.8519 9.4308 23.8519 9.15879V7.5892C21.9986 7.65204 20.2524 8.13102 18.7014 8.93558V8.93533ZM24.2728 12.6163C24.5449 12.6163 24.7657 12.8372 24.7657 13.107V17.7366C25.6424 17.9575 26.2911 18.7505 26.2911 19.6946C26.2911 20.0736 26.1864 20.427 26.0051 20.7293L29.0791 23.8033C29.2697 23.994 29.2697 24.3056 29.0791 24.4986C28.8861 24.6893 28.5745 24.6893 28.3815 24.4986L25.3098 21.4246C25.0052 21.606 24.6517 21.7106 24.2727 21.7106C23.1589 21.7106 22.2567 20.8084 22.2567 19.6946C22.2567 18.7505 22.9055 17.9575 23.7821 17.7366V13.107C23.7821 12.8372 24.003 12.6163 24.2727 12.6163H24.2728ZM38.9384 34.8461C38.9384 34.8461 35.0133 36.1041 27.1585 38.6178C22.6962 40.0478 23.1846 40.278 19.2641 38.4131C17.283 37.469 14.7205 36.2482 10.7396 34.3531C8.90261 33.4788 8.63986 33.2648 6.61451 33.0393L6.2936 33.0021V26.0658C11.1953 24.8706 17.4573 24.2032 20.2686 28.9445C23.3031 30.3862 24.8215 31.107 24.8215 31.107C26.8538 31.7813 26.033 33.7974 25.9307 34.0462C25.7446 34.3112 25.4796 34.4996 25.1796 34.6018C24.7935 34.7344 24.3564 34.7228 23.9658 34.5414L16.8155 31.2278C16.569 31.1139 16.2784 31.2208 16.1644 31.4674C16.0505 31.7139 16.1574 32.0068 16.404 32.1184L23.5542 35.4343C24.1797 35.7226 24.8796 35.7436 25.4958 35.532C26.1073 35.325 26.6375 34.8879 26.9352 34.2647C27.0026 34.1205 26.9934 33.9624 26.9282 33.8322L27.7398 33.6369L33.8995 32.2115C36.5201 31.507 38.4896 32.9533 38.9384 34.8461ZM1.06641 24.0916H5.30775V35.6506H1.06641V24.0916ZM7.69814 21.3733C7.64236 20.8106 7.61439 20.2502 7.61439 19.6945C7.61439 15.6763 9.03746 11.9885 11.4092 9.10973C13.5461 6.51467 16.4551 4.57775 19.7803 3.6476L17.7643 3.21972C17.4992 3.16394 17.3294 2.90349 17.3853 2.63845C17.4412 2.37341 17.7015 2.2036 17.9666 2.25938L21.8034 3.07092C22.0685 3.1267 22.2383 3.38945 22.1824 3.65457C22.1638 3.74062 22.1219 3.8197 22.0662 3.88016L19.4456 6.79604C19.2642 6.99833 18.9526 7.01465 18.7503 6.83328C18.5503 6.65191 18.5341 6.34028 18.7154 6.13799L20.1223 4.57308C16.9599 5.4381 14.1951 7.27043 12.1674 9.73284C9.93751 12.4395 8.59811 15.9089 8.59811 19.6945C8.59811 20.2386 8.6237 20.7665 8.6748 21.2756C8.72829 21.8058 8.80737 22.3266 8.90966 22.8359C8.96314 23.101 8.79104 23.3591 8.526 23.4126C8.26096 23.4661 8.0028 23.294 7.94932 23.0266C7.83768 22.4825 7.75392 21.929 7.69814 21.3733ZM40.5935 28.3613C40.7024 28.6101 40.589 28.9001 40.3402 29.009L36.7499 30.5809C36.6867 30.6086 36.6196 30.6222 36.5527 30.6222C36.4495 30.6222 36.3471 30.5897 36.2612 30.5265C36.1197 30.4224 36.0444 30.2507 36.0639 30.0761L36.4964 26.1813C36.5263 25.9113 36.769 25.7176 37.0394 25.7467C37.3094 25.7768 37.504 26.0199 37.4739 26.2899L37.2254 28.5283C37.9695 27.4413 38.5795 26.257 39.0314 24.9985C39.6267 23.3453 39.9499 21.5595 39.9499 19.6946C39.9499 15.6973 38.4547 12.049 35.9922 9.27954C33.5018 6.47989 30.0232 4.57783 26.1051 4.12199C25.8353 4.0918 25.6423 3.84759 25.6726 3.57787C25.7029 3.30815 25.947 3.11513 26.2167 3.1454C30.3836 3.63136 34.0809 5.65203 36.727 8.62608C39.3453 11.5699 40.9335 15.4462 40.9335 19.6945C40.9335 21.6686 40.5894 23.5661 39.9546 25.3287C39.4998 26.5934 38.8982 27.7858 38.1702 28.8853L39.9457 28.108C40.1942 27.9989 40.4845 28.1124 40.5934 28.3613H40.5935Z" fill="#1E949E"/>
</svg>
