<svg width="55" height="56" viewBox="0 0 55 56" fill="none" xmlns="http://www.w3.org/2000/svg">
<path d="M52.6294 9.875C45.3957 9.875 34.9557 6.13581 28.3419 1.175C28.2658 1.11881 28.1788 1.09163 28.0972 1.04812C28.0283 1.01187 27.9667 0.970187 27.8942 0.941187C27.6912 0.86325 27.4791 0.816125 27.2653 0.814313C27.2616 0.814313 27.258 0.8125 27.2544 0.8125C27.2508 0.8125 27.2471 0.814313 27.2435 0.814313C27.0296 0.816125 26.8176 0.865062 26.6146 0.941187C26.5421 0.968375 26.4786 1.01006 26.4116 1.04812C26.33 1.09163 26.243 1.11881 26.1669 1.175C19.5531 6.13581 9.11308 9.875 1.87939 9.875C0.878895 9.875 0.0668945 10.687 0.0668945 11.6875C0.0668945 31.132 10.458 48.1478 26.5403 55.0407H26.5439C26.7614 55.1349 27.0025 55.1875 27.2544 55.1875C27.5063 55.1875 27.7474 55.1349 27.9649 55.0407H27.9685C44.0508 48.1478 54.4419 31.132 54.4419 11.6875C54.4419 10.687 53.6299 9.875 52.6294 9.875ZM48.6292 26.1875H29.0669V6.02163C35.5846 10.0708 43.9965 12.9744 50.7861 13.4366C50.6338 17.8808 49.8835 22.1637 48.6292 26.1875ZM25.4419 6.02163V26.1875H5.87958C4.62533 22.1637 3.87677 17.8808 3.72271 13.4348C10.5123 12.9744 18.9241 10.0708 25.4419 6.02163ZM7.18639 29.8125H25.4419V50.4841C17.2095 46.1703 10.8458 38.8152 7.18639 29.8125ZM29.0669 50.4841V29.8125H47.3224C43.663 38.8152 37.2993 46.1703 29.0669 50.4841Z" fill="#1E949E"/>
</svg>
