<svg version="1.2" xmlns="http://www.w3.org/2000/svg" viewBox="0 0 512 512" width="512" height="512">
	<title>demo</title>
	<style>
		.s0 { fill: #ffffff;stroke: #ffffff;stroke-width: 10; } 
	</style>
	<g>
		<path class="s0" d="m138.7 437.3q-3.4 0-6.7-0.4-3.3-0.5-6.5-1.4-3.2-0.8-6.3-2.1-3.1-1.3-6-3c-3.7-2.1-7.1-4.7-10.1-7.7-3-3-5.6-6.4-7.7-10.1-2.1-3.6-3.8-7.6-4.9-11.7-1.1-4.1-1.6-8.3-1.6-12.5v-264.8c0-4.2 0.5-8.5 1.6-12.6 1.1-4.1 2.8-8 4.9-11.7 2.1-3.6 4.7-7 7.7-10 3-3 6.4-5.6 10.1-7.7 3.8-2.2 7.9-4 12.1-5.1 4.2-1.2 8.6-1.8 13-1.9 4.4 0 8.8 0.5 13 1.7 4.3 1.1 8.4 2.7 12.2 4.9l234.6 132.4c7.6 4.2 13.9 10.3 18.3 17.8 4.4 7.5 6.7 15.9 6.7 24.6 0 8.7-2.3 17.1-6.7 24.6-4.4 7.5-10.7 13.6-18.3 17.8l-234.6 132.4q-2.9 1.6-5.9 2.8-3 1.2-6.1 2.1-3.1 0.8-6.4 1.2-3.2 0.4-6.4 0.4zm0-341.3q-2 0-3.9 0.3-1.9 0.2-3.7 0.7-1.9 0.5-3.7 1.3-1.8 0.7-3.4 1.7-3.1 1.8-5.7 4.3-2.6 2.6-4.4 5.7-1.8 3.1-2.7 6.5-1 3.5-1 7.1v264.8q0 3.6 1 7.1 0.9 3.4 2.7 6.5 1.8 3.1 4.4 5.7 2.6 2.5 5.7 4.3c2.2 1.3 4.5 2.3 7 2.9 2.4 0.7 4.9 1.1 7.5 1.1 2.5 0 5-0.3 7.5-0.9 2.4-0.7 4.8-1.6 7-2.9l234.7-132.4c4.2-2.3 7.8-5.8 10.3-10 2.5-4.1 3.8-8.9 3.8-13.8 0-4.9-1.3-9.7-3.8-13.8-2.5-4.2-6.1-7.7-10.3-10l-234.7-132.4q-1.6-0.9-3.4-1.6-1.7-0.7-3.5-1.2-1.8-0.5-3.7-0.8-1.9-0.2-3.7-0.2z"/>
	</g>
</svg>