<svg xmlns="http://www.w3.org/2000/svg" version="1.1" xmlns:xlink="http://www.w3.org/1999/xlink" width="512" height="512" x="0" y="0" viewBox="0 0 512 512" style="enable-background:new 0 0 512 512" xml:space="preserve"><g><path d="M74.69 441.87H39.83c-17.86 0-32.33-14.47-32.33-32.33V102.46c0-17.86 14.47-32.33 32.33-32.33H402.1M437.2 70.13h34.97c17.86 0 32.33 14.47 32.33 32.33v307.08c0 17.86-14.47 32.33-32.33 32.33H109.79" style="stroke-width:15;stroke-linecap:round;stroke-linejoin:round;stroke-miterlimit:10;" fill="none" stroke="#ffffff" stroke-width="15" stroke-linecap="round" stroke-linejoin="round" stroke-miterlimit="10" data-original="#000000" opacity="1"></path><path d="M39.83 185.27V395.4c0 7.81 6.33 14.14 14.14 14.14h371.74c7.81 0 14.14-6.33 14.14-14.14V116.6c0-7.81-6.33-14.14-14.14-14.14H53.97c-7.81 0-14.14 6.33-14.14 14.14v33.57M472.175 266.102v-20.204" style="stroke-width:15;stroke-linecap:round;stroke-linejoin:round;stroke-miterlimit:10;" fill="none" stroke="#ffffff" stroke-width="15" stroke-linecap="round" stroke-linejoin="round" stroke-miterlimit="10" data-original="#000000" opacity="1"></path><path d="M196.222 298.996h-27.241v64.65h27.241M194.214 331.321h-25.233M136.656 331.321c0 17.813-9.887 31.909-25.572 32.183-5.221.091-18.715.142-18.715.142l-.131-64.65h18.31c17.204 0 26.108 14.512 26.108 32.325zM228.547 363.141l11.363-62.957c.284-1.474 2.34-1.612 2.818-.189l18.485 62.656c.448 1.334 2.339 1.325 2.773-.014l17.854-62.631c.463-1.428 2.52-1.312 2.82.159l12.036 62.977" style="stroke-width:15;stroke-linecap:round;stroke-linejoin:round;stroke-miterlimit:10;" fill="none" stroke="#ffffff" stroke-width="15" stroke-linecap="round" stroke-linejoin="round" stroke-miterlimit="10" data-original="#000000" opacity="1"></path><circle cx="355.112" cy="331.321" r="32.325" style="stroke-width:15;stroke-linecap:round;stroke-linejoin:round;stroke-miterlimit:10;" fill="none" stroke="#ffffff" stroke-width="15" stroke-linecap="round" stroke-linejoin="round" stroke-miterlimit="10" data-original="#000000" opacity="1"></circle><path d="M197.368 239.506v-79.012c0-9.336 10.11-15.167 18.191-10.493l68.307 39.506c8.071 4.668 8.071 16.319 0 20.987L215.559 250c-8.082 4.673-18.191-1.159-18.191-10.494z" style="stroke-width:15;stroke-linecap:round;stroke-linejoin:round;stroke-miterlimit:10;" fill="none" stroke="#ffffff" stroke-width="15" stroke-linecap="round" stroke-linejoin="round" stroke-miterlimit="10" data-original="#000000" opacity="1"></path></g></svg>