<?xml version="1.0" encoding="UTF-8"?>
<svg id="Layer_1" data-name="Layer 1" xmlns="http://www.w3.org/2000/svg" version="1.1" viewBox="0 0 64 64" fill="currentColor">
  <rect x="-111.9" y="173" width="64" height="64" fill="none" />
  <path fill="currentColor" fill= "#000;" d="M51.4,27.1c-1.2,1.9-1.3,3.9-1.2,6,1.2,25.7-8.1,30.4-8.1,30.4-.2,0-.3,0-.4,0-1.4,0-1.5-3-1.5-3,0-3-.3-5.9-.8-8.8-.6-3-2-13.5-6.2-14.5-.5-.1-.9-.2-1.2-.2s-.7,0-1.2.2c-4.2,1-5.7,11.4-6.2,14.4-.5,2.9-.7,5.8-.8,8.8,0,0-.1,3-1.5,3s-.3,0-.4,0c0,0-9.2-4.7-8-30.4,0-2.2,0-4.1-1.2-6-3.8-6-6.6-14.8-2.5-21.4C13.3.3,19.8-.8,25.1,1.8c2.4,1.1,4.8,1.9,7.3,1.9s3.9-.5,5.8-1.5c3.2-1.8,7.1-2.1,10.3-.9,2.2.8,4.1,2.2,5.4,4.4,4,6.6,1.2,15.5-2.6,21.4Z"/>
</svg>
