<svg fill="currentColor" style="fill: currentColor" width="64" height="64" viewBox="0 0 64 64" xmlns="http://www.w3.org/2000/svg">
<g clip-path="url(#clip0_91_1805)">
<path d="M14.7459 29.2368C17.3716 33.7424 18.756 38.8635 18.7582 44.0783V46.9119C18.7583 51.231 19.5014 55.5178 20.955 59.5849H27.5863V55.9492C27.583 50.1956 28.5887 44.4861 30.5578 39.08C31.0599 37.7293 31.9444 36.5541 33.1034 35.6977V33.6566C31.617 34.4033 30.3174 35.4745 29.3007 36.791C28.2839 38.1075 27.5759 39.6356 27.2291 41.2624L24.2529 55.3988C24.2011 55.6467 24.0655 55.8692 23.869 56.0289C23.6725 56.1886 23.427 56.2759 23.1737 56.276H23.1185C22.8564 56.2633 22.6074 56.1575 22.4163 55.9777C22.2251 55.7979 22.1043 55.5559 22.0756 55.2951L21.195 47.3733C21.0423 45.9942 20.9657 44.6077 20.9656 43.2201C20.9726 38.1643 19.8902 33.1662 17.792 28.5663L16.6049 25.9516C15.7121 23.9876 15.3264 21.831 15.4832 19.6793C15.64 17.5277 16.3342 15.4497 17.5023 13.6359C18.6703 11.8222 20.2749 10.3305 22.1689 9.2976C24.063 8.26472 26.1859 7.72365 28.3433 7.72397H33.1038V4.41382H15.1516C12.4971 7.50072 11.0365 11.4366 11.0347 15.5078C11.036 20.3318 12.3166 25.0692 14.7459 29.2368Z"/>
<path d="M17.6564 20.6192C17.6536 22.1447 17.98 23.6528 18.6133 25.0406L19.8004 27.6553C22.0306 32.5405 23.1814 37.8491 23.1743 43.2193C23.1743 43.3011 23.181 43.3837 23.181 43.4664L24.2817 31.895L24.2775 26.4829C24.2774 26.2828 24.332 26.0863 24.4353 25.9149L24.8195 25.2747L22.8761 23.3313L20.2125 24.2195L19.512 22.1265L21.8534 21.3463L20.9982 17.9243L23.1389 17.3892L24.1696 21.5061L25.9881 23.3246L27.4325 20.9178L24.3918 14.839L26.3659 13.8513L27.6636 16.4479L28.6897 15.0806V12.1378H30.8987V15.448C30.8987 15.6867 30.8213 15.919 30.6781 16.1101L28.7702 18.6535L29.6757 20.4712C29.7582 20.6374 29.7977 20.8218 29.7903 21.0073C29.7829 21.1928 29.729 21.3735 29.6335 21.5327L26.4832 26.7883V29.338L27.7256 28.0956L28.7479 25.0305L30.8401 25.7289L29.7368 29.039C29.6824 29.2014 29.5914 29.349 29.4707 29.4705L26.4343 32.5069L25.8801 38.3382C27.2619 35.1197 29.8583 32.5767 33.1047 31.262V9.93089H28.3447C25.5109 9.93401 22.7941 11.0611 20.7904 13.0649C18.7866 15.0686 17.6595 17.7854 17.6564 20.6192ZM29.7933 55.9492V59.5849H33.1035V38.8911C32.9142 39.189 32.7559 39.5056 32.6311 39.8357C30.7502 45.0001 29.7896 50.4543 29.7929 55.9504L29.7933 55.9492ZM16.551 46.9119V44.0783C16.5499 39.2543 15.2693 34.5169 12.8398 30.3493C10.2142 25.8434 8.82979 20.7221 8.82746 15.507C8.83009 11.5329 10.0646 7.65726 12.3611 4.41382H4.41406V59.5862H18.6154C17.2472 55.5011 16.5504 51.2213 16.5519 46.9132L16.551 46.9119Z"/>
<path d="M0 64H37.5171V0H0V64ZM2.20691 3.31016C2.20691 3.01756 2.32315 2.73694 2.53004 2.53004C2.73694 2.32315 3.01756 2.20691 3.31016 2.20691H34.2069C34.4995 2.20691 34.7801 2.32315 34.987 2.53004C35.1939 2.73694 35.3102 3.01756 35.3102 3.31016V60.6894C35.3102 60.8343 35.2816 60.9778 35.2262 61.1116C35.1707 61.2455 35.0895 61.3671 34.987 61.4695C34.8846 61.572 34.763 61.6532 34.6291 61.7087C34.4953 61.7641 34.3518 61.7927 34.2069 61.7927H3.31016C3.16528 61.7927 3.02181 61.7641 2.88796 61.7087C2.75411 61.6532 2.63249 61.572 2.53004 61.4695C2.4276 61.3671 2.34633 61.2455 2.29089 61.1116C2.23545 60.9778 2.20691 60.8343 2.20691 60.6894V3.31016ZM57.4113 2.03569C55.7135 0.718951 53.6266 0.00296021 51.478 0H47.4484C44.7354 0.00179541 42.071 0.719259 39.724 2.07997V34.5456C40.8107 34.8868 41.8045 35.4732 42.6285 36.2596C43.4526 37.046 44.0848 38.0112 44.4764 39.0808C46.4454 44.487 47.4512 50.1965 47.448 55.95V61.0909C47.4493 61.7568 47.679 62.402 48.0987 62.919C48.5184 63.436 49.1027 63.7933 49.7541 63.9315C50.4054 64.0697 51.0845 63.9803 51.6779 63.6782C52.2713 63.3762 52.7432 62.8797 53.0148 62.2718C55.1703 57.4386 56.2811 52.2048 56.2743 46.9128V44.0792C56.2762 38.8643 57.6607 33.7432 60.2867 29.2377C62.7159 25.0695 63.9965 20.3318 63.9979 15.5074C64.0064 12.9071 63.4166 10.3397 62.2743 8.00365C61.132 5.66766 59.4676 3.6257 57.4101 2.03569H57.4113Z"/>
</g>
<defs>
<clipPath id="clip0_91_1805">
<rect width="64" height="64"/>
</clipPath>
</defs>
</svg>
