<svg fill="currentColor" style="fill: currentColor" width="62" height="64" viewBox="0 0 62 64" xmlns="http://www.w3.org/2000/svg">
<g clip-path="url(#clip0_91_1792)">
<path d="M41.5912 1.82777C41.7205 1.54649 41.7438 1.22833 41.6569 0.931373C41.57 0.634412 41.3787 0.378465 41.1179 0.210265C40.8571 0.0420641 40.5443 -0.0271691 40.2365 0.0152066C39.9287 0.0575822 39.6464 0.20874 39.4413 0.441079C35.3967 5.10572 30.7102 13.0302 28.4655 25.828C27.7829 29.3165 26.0684 32.5223 23.5419 35.0339C22.1901 36.4351 21.2637 38.1882 20.8698 40.091C20.4759 41.9937 20.6304 43.9685 21.3155 45.7876C22.0006 47.6067 23.1884 49.1959 24.7419 50.372C26.2954 51.548 28.1513 52.263 30.0955 52.4344C32.0397 52.6059 33.993 52.2267 35.73 51.3408C37.467 50.4548 38.917 49.0981 39.9127 47.4272C40.9084 45.7563 41.4092 43.8393 41.3574 41.8973C41.3057 39.9553 40.7034 38.0674 39.62 36.4514C36.7947 32.439 35.5327 27.5404 36.0696 22.6698C36.8365 15.4838 38.6984 8.45584 41.5912 1.82777Z"/>
<path d="M59.4124 40.9291H45.2673C46.5547 48.4143 41.0531 57.847 31.1094 57.7236C28.9568 57.7866 26.8164 57.3797 24.8387 56.5314C22.8609 55.6831 21.0938 54.4141 19.6614 52.8135C18.229 51.2129 17.1661 49.3195 16.5474 47.2664C15.9286 45.2132 15.7691 43.0501 16.0799 40.9291H2.58577C1.89981 40.9296 1.24212 41.2011 0.757243 41.6841C0.27237 42.167 -1.70334e-07 42.8219 0 43.5046V61.4245C0 62.1075 0.272619 62.7626 0.757886 63.2456C1.24315 63.7286 1.90132 64 2.58759 64H59.4124C59.7522 64 60.0887 63.9334 60.4026 63.8039C60.7166 63.6745 61.0018 63.4848 61.2421 63.2456C61.4824 63.0065 61.673 62.7226 61.803 62.4101C61.9331 62.0976 62 61.7627 62 61.4245V43.5046C62 42.8215 61.7274 42.1664 61.2421 41.6834C60.7568 41.2004 60.0987 40.9291 59.4124 40.9291Z"/>
</g>
<defs>
<clipPath id="clip0_91_1792">
<rect width="62" height="64"/>
</clipPath>
</defs>
</svg>
