<svg fill="currentColor" style="fill: currentColor" width="52" height="64" viewBox="0 0 52 64" xmlns="http://www.w3.org/2000/svg">
<path d="M51.2521 15.8196C49.6041 10.0346 45.8409 5.98073 40.7386 3.1454C35.7479 0.372161 30.3477 -0.490004 24.711 0.255616C20.0101 0.877041 15.6869 2.51182 11.9925 5.55865C7.73232 9.07211 5.33946 13.6048 4.98582 19.1872C4.86615 21.0704 4.85186 22.9837 4.48349 24.8219C3.81015 28.1968 2.31478 31.2886 0.828336 34.3696C0.522112 34.9943 0.278162 35.648 0.100073 36.3212C-0.0973332 36.9419 -0.0510602 37.6153 0.229365 38.2027C0.50979 38.7901 1.00302 39.2468 1.6075 39.4787C2.56884 39.8266 2.71976 39.7487 2.99169 38.7587C3.03322 38.6071 3.08099 38.4564 3.12029 38.3043C4.1169 34.5861 5.88242 31.3709 9.08436 29.1098C11.1629 27.6438 13.3593 26.441 15.9727 26.391C18.7908 26.2979 21.5539 27.1903 23.7934 28.9167C24.6632 29.6142 25.6658 30.1244 26.7391 30.4155C27.8125 30.7067 28.9337 30.7728 30.0334 30.6096C32.074 30.3157 33.8569 29.4149 35.5912 28.3664C36.2834 27.9118 37.0054 27.505 37.7523 27.1488C38.079 26.9969 38.4386 26.9307 38.7975 26.9563C39.1565 26.9819 39.5032 27.0985 39.8054 27.2952C40.1077 27.492 40.3558 27.7625 40.5265 28.0817C40.6973 28.4009 40.7853 28.7584 40.7823 29.121C40.8475 29.5955 40.7771 30.0789 40.5794 30.5146C40.3817 30.9502 40.0648 31.32 39.666 31.5806C38.616 32.2131 37.5241 32.7721 36.398 33.2537C35.3114 33.6895 34.3753 34.4366 33.7055 35.4028C32.366 37.4012 31.9195 39.6673 31.894 42.0175C31.8199 49.08 31.7962 56.1429 31.7529 63.2054C31.7529 63.4304 31.7529 63.6553 31.7529 64.0018H46.2003C47.1572 64.0018 47.1572 64.0018 47.1576 63.0065C47.1618 55.199 47.1655 47.3915 47.1688 39.584C47.1688 38.1783 47.3581 36.8391 48.4034 35.7763C48.4934 35.6753 48.5636 35.558 48.6101 35.4307C49.4246 33.4337 50.2881 31.4546 51.0316 29.4311C51.7688 27.4237 51.8232 25.3025 51.9492 23.1795C52.1366 20.7045 51.9008 18.2155 51.2521 15.8209"/>
<path d="M23.3343 40.2901C21.6632 38.1913 19.5565 36.4865 17.1622 35.2953C15.5323 34.4067 13.6397 34.1387 11.8299 34.5402C9.39107 35.1009 7.338 36.2573 6.18957 38.6679C5.4939 40.1285 4.72009 41.5514 3.9896 42.9954C3.4962 43.9705 3.62569 44.5131 4.56247 45.077C5.04744 45.352 5.5601 45.5742 6.09178 45.7398C6.57044 45.9013 7.07723 45.9796 7.72155 46.1299C7.12724 46.6596 6.61777 47.0641 6.16724 47.5249C5.31262 48.4023 5.53632 49.5403 6.63921 50.0655C6.75827 50.1278 6.88394 50.1764 7.01383 50.2104C7.47017 50.3098 7.60992 50.5847 7.57376 51.0442C7.50351 51.9441 7.45885 52.8441 7.4398 53.7441C7.41325 54.4712 7.648 55.1835 8.1009 55.7501C8.5538 56.3167 9.19442 56.6995 9.905 56.8282C10.4543 56.9304 11.0124 56.9767 11.5709 56.9664C13.607 56.9416 15.6427 56.8764 17.6788 56.844C18.7808 56.8255 19.0844 57.0411 19.1375 58.1251C19.2193 59.79 19.1943 61.459 19.2206 63.1262C19.2251 63.4065 19.2581 63.6864 19.2769 63.9474H26.1304C26.1537 63.8019 26.1686 63.6551 26.175 63.5078C26.0518 57.9622 25.9455 52.4157 25.791 46.8706C25.7193 44.4625 24.8554 42.1467 23.3352 40.2874"/>
</svg>
