<svg width="14" height="26" viewBox="0 0 14 26" fill="none" xmlns="http://www.w3.org/2000/svg">
<path d="M4.74829 6.63672L4.74731 6.61621C4.68623 5.87565 4.78488 5.12988 5.03638 4.43066C5.25647 3.81894 5.5886 3.25442 6.01587 2.7666L6.20435 2.5625C6.65823 2.09708 7.19534 1.72186 7.78638 1.45508L8.04321 1.34766C8.73588 1.0787 9.47814 0.961435 10.22 1.00391L10.2346 1.00488H13.4934L13.4973 1.00781L13.4993 1.01074L13.5002 1.01465V4.83691L13.4993 4.84082L13.4973 4.84375C13.4964 4.84467 13.4946 4.8452 13.4934 4.8457C13.4922 4.84618 13.4908 4.84668 13.4895 4.84668H11.3059C10.5138 4.84671 9.8799 4.99649 9.47583 5.4541C9.08508 5.89686 9.02466 6.50664 9.02466 7.08984V9.99414H13.3333C13.3345 9.99414 13.336 9.99469 13.3372 9.99512L13.3411 9.99707L13.343 10.001C13.3434 10.0021 13.344 10.0037 13.344 10.0049V14.1191L13.3411 14.127C13.3392 14.1288 13.3359 14.1299 13.3333 14.1299H9.02271V24.9941C9.02271 24.9954 9.02218 24.9969 9.02173 24.998C9.02123 24.9993 9.02071 25.001 9.01978 25.002L9.01587 25.0039C9.01477 25.0043 9.01314 25.0049 9.01196 25.0049H4.76392L4.7561 25.002L4.75317 24.9941V14.123H0.993408L0.986572 14.1201C0.984761 14.1183 0.983668 14.1159 0.983643 14.1133V10.0029L0.984619 9.99902L0.986572 9.99609C0.987413 9.99526 0.988426 9.99463 0.989502 9.99414C0.990644 9.99367 0.992177 9.99319 0.993408 9.99316H4.74829V6.63672Z" fill="#B0B0BA" stroke="#B0B0BA"/>
</svg>
