<svg width="26" height="26" viewBox="0 0 26 26" fill="none" xmlns="http://www.w3.org/2000/svg">
<path d="M12.983 6.59057C11.7152 6.59057 10.4759 6.96651 9.42182 7.67085C8.3677 8.37519 7.54612 9.37629 7.06096 10.5476C6.5758 11.7188 6.44886 13.0077 6.69619 14.2511C6.94352 15.4945 7.55402 16.6367 8.45047 17.5331C9.34693 18.4296 10.4891 19.0401 11.7325 19.2874C12.9759 19.5347 14.2648 19.4078 15.436 18.9226C16.6073 18.4375 17.6084 17.6159 18.3127 16.5618C19.0171 15.5077 19.393 14.2683 19.393 13.0006C19.3943 12.1584 19.2294 11.3243 18.9078 10.546C18.5861 9.76772 18.114 9.06056 17.5185 8.46508C16.923 7.86959 16.2159 7.39748 15.4376 7.07582C14.6593 6.75415 13.8252 6.58925 12.983 6.59057ZM12.983 17.1668C12.1588 17.1668 11.353 16.9224 10.6677 16.4645C9.98235 16.0065 9.44819 15.3557 9.13276 14.5942C8.81733 13.8326 8.7348 12.9947 8.8956 12.1863C9.05641 11.3779 9.45332 10.6353 10.0362 10.0524C10.619 9.46961 11.3616 9.0727 12.17 8.91189C12.9784 8.75109 13.8163 8.83362 14.5779 9.14905C15.3394 9.46448 15.9902 9.99864 16.4482 10.684C16.9061 11.3693 17.1505 12.1751 17.1505 12.9993C17.1485 14.104 16.7088 15.1629 15.9277 15.944C15.1466 16.7251 14.0877 17.1648 12.983 17.1668ZM21.1505 6.32807C21.1505 6.62474 21.0626 6.91475 20.8977 7.16142C20.7329 7.4081 20.4986 7.60036 20.2246 7.71389C19.9505 7.82742 19.6489 7.85712 19.3579 7.79924C19.0669 7.74137 18.7996 7.59851 18.5899 7.38873C18.3801 7.17895 18.2372 6.91168 18.1793 6.6207C18.1215 6.32973 18.1512 6.02813 18.2647 5.75404C18.3782 5.47995 18.5705 5.24569 18.8172 5.08086C19.0638 4.91604 19.3539 4.82807 19.6505 4.82807C19.8475 4.82691 20.0428 4.8648 20.2251 4.93953C20.4073 5.01427 20.573 5.12438 20.7124 5.2635C20.8519 5.40262 20.9624 5.568 21.0376 5.75008C21.1128 5.93215 21.1512 6.12732 21.1505 6.32432V6.32807ZM25.4005 7.84556C25.4417 5.90173 24.716 4.01983 23.3805 2.60682C21.9632 1.27626 20.0817 0.552657 18.138 0.590566C16.0743 0.473066 9.88803 0.473066 7.82303 0.590566C5.88078 0.551766 4.00046 1.27455 2.58428 2.60432C1.25431 4.01928 0.531826 5.89909 0.571777 7.84057C0.446777 9.90057 0.446777 16.0906 0.571777 18.1518C0.530629 20.0956 1.25627 21.9776 2.59178 23.3906C4.00613 24.7182 5.88222 25.4423 7.82178 25.4093C9.88553 25.5268 16.0718 25.5268 18.1368 25.4093C20.0806 25.4505 21.9625 24.7248 23.3755 23.3893C24.7065 21.9735 25.4314 20.0935 25.3955 18.1506C25.513 16.0906 25.513 9.90682 25.3955 7.84057L25.4005 7.84556ZM22.7293 20.3656C22.5171 20.903 22.1969 21.3911 21.7883 21.7996C21.3798 22.2082 20.8917 22.5284 20.3543 22.7406C18.708 23.3931 14.8043 23.2406 12.9793 23.2406C11.1543 23.2406 7.25053 23.3856 5.60428 22.7406C5.06687 22.5284 4.57877 22.2082 4.17023 21.7996C3.76169 21.3911 3.44142 20.903 3.22928 20.3656C2.57678 18.7193 2.72928 14.8156 2.72928 12.9906C2.72928 11.1656 2.58428 7.26181 3.22928 5.61556C3.44142 5.07816 3.76169 4.59006 4.17023 4.18152C4.57877 3.77298 5.06687 3.45271 5.60428 3.24057C7.25053 2.58807 11.1543 2.74057 12.9793 2.74057C14.8043 2.74057 18.708 2.59557 20.3543 3.24057C20.8917 3.45271 21.3798 3.77298 21.7883 4.18152C22.1969 4.59006 22.5171 5.07816 22.7293 5.61556C23.3818 7.26181 23.2293 11.1656 23.2293 12.9906C23.2293 14.8156 23.3818 18.7256 22.7293 20.3656Z" fill="#B0B0BA" stroke="#B0B0BA" stroke-width="0.5"/>
</svg>
