<svg fill="currentColor" style="fill: currentColor" width="51" height="64" viewBox="0 0 51 64" xmlns="http://www.w3.org/2000/svg">
<path d="M26.8121 40.6752V30.6491L28.8968 31.1057C28.8968 32.7743 28.8968 34.4161 28.8968 36.0578C28.8968 37.2216 29.1691 37.4239 30.4153 37.594C31.4051 37.7282 32.3736 38.0093 33.342 38.2403C33.7924 38.3477 34.2322 38.5124 34.6826 38.5983C35.9412 38.8597 36.6088 38.4193 36.7565 37.243C36.8882 35.6865 36.6854 34.1197 36.1619 32.649C35.6441 30.6212 34.7002 28.7287 33.3937 27.0989C32.8039 26.4523 32.0776 25.947 31.268 25.62C31.0189 25.4722 30.7341 25.3962 30.4448 25.4002C30.1556 25.4043 29.873 25.4883 29.628 25.643C29.383 25.7977 29.1851 26.0171 29.0558 26.2774C28.9265 26.5376 28.8709 26.8286 28.895 27.1185C28.8861 27.7004 28.895 28.2823 28.895 28.9537C28.2149 28.8087 27.6168 28.6994 27.0364 28.5383C26.9631 28.4974 26.9009 28.4389 26.8556 28.368C26.8102 28.2971 26.783 28.216 26.7765 28.1319C26.7658 25.586 26.7765 23.0419 26.7765 20.496C26.7953 20.4116 26.8259 20.3302 26.8673 20.2543H27.5046C31.0277 20.2543 34.5508 20.2436 38.0739 20.2543C41.0042 20.1363 43.8769 21.0959 46.1545 22.9538C48.4321 24.8117 49.9586 27.4405 50.4484 30.3483C50.4902 30.7743 50.5045 31.2025 50.4911 31.6302C50.4911 40.6405 50.4911 49.652 50.4911 58.6647C50.5161 59.561 50.2301 60.4381 49.682 61.1455C49.134 61.8528 48.3582 62.3461 47.4879 62.5408C46.8755 62.7304 46.2278 62.7753 45.5954 62.672C44.9629 62.5687 44.3627 62.32 43.8414 61.9453C43.3201 61.5706 42.8919 61.0799 42.59 60.5115C42.2881 59.9431 42.1207 59.3124 42.1008 58.6683C42.0759 56.0329 42.1008 53.3975 42.1008 50.762V34.3051H38.665V63.9767H12.3796V34.3247H8.91706V35.1895C8.91706 42.9609 8.91706 50.7322 8.91706 58.5036C8.96164 59.4613 8.65955 60.4028 8.06676 61.1536C7.47397 61.9045 6.63064 62.4139 5.69303 62.5874C5.11651 62.7552 4.51012 62.7921 3.9177 62.6953C3.32528 62.5985 2.76164 62.3706 2.26757 62.0279C1.77349 61.6852 1.36132 61.2364 1.06087 60.7139C0.760418 60.1914 0.579197 59.6082 0.530314 59.0066C0.50005 54.7241 0.524974 50.4451 0.523193 46.1644C0.523193 41.3895 0.603305 36.611 0.503611 31.8415C0.378993 25.9208 5.70015 20.9973 11.7334 20.4387C14.4661 20.1863 17.2433 20.3152 19.9991 20.283C21.3752 20.2668 22.7496 20.283 24.1827 20.283C24.2094 20.5229 24.2485 20.7162 24.2485 20.9096C24.2485 23.2747 24.2343 25.6397 24.2628 28.0048C24.2628 28.5132 24.0848 28.7352 23.5507 28.8104C23.0967 28.8731 22.6606 29.0199 22.1265 29.1488C22.1265 28.4183 22.1372 27.7684 22.1265 27.1185C22.1016 25.8331 21.1189 25.1939 19.7766 25.6003C18.9005 25.8594 18.1303 26.3948 17.5797 27.1275C15.967 29.2893 14.8871 31.805 14.4287 34.468C14.2683 35.3752 14.2187 36.2987 14.2809 37.218C14.3504 38.4444 15.0767 38.9009 16.3674 38.6019C17.5797 38.3208 18.7743 37.9789 19.9777 37.662C20.0016 37.6556 20.0261 37.6514 20.0507 37.6494C22.5039 37.4704 22.1105 36.9798 22.1283 35.3614C22.1407 34.1905 22.1496 33.0178 22.1283 31.8469C22.1194 31.4423 22.2351 31.2256 22.6962 31.1504C23.1572 31.0752 23.6415 30.9284 24.2147 30.7924C24.2325 31.0788 24.2592 31.3116 24.2592 31.5443C24.2592 35.0355 24.2592 38.5273 24.2592 42.0197C24.2592 43.1745 24.0581 43.3374 22.7923 43.3285C21.7099 43.3285 20.6204 43.2801 19.5433 43.3571C18.5471 43.3806 17.6003 43.7981 16.9081 44.519C16.216 45.2399 15.8343 46.2061 15.8458 47.2082C15.9161 48.2108 16.3698 49.1471 17.1116 49.8206C17.8534 50.4942 18.8257 50.8528 19.8246 50.8211C23.4955 50.848 27.1664 50.8301 30.8372 50.8336C31.0829 50.8336 31.3891 50.7728 31.5582 50.8802C31.8075 51.0395 32.1137 51.3296 32.1083 51.557C32.103 51.7843 31.7523 52.0296 31.4959 52.1675C31.2589 52.2301 31.0115 52.2423 30.7696 52.2033C27.2215 52.2033 23.6735 52.2033 20.1255 52.2033C19.5859 52.1919 19.0472 52.2521 18.5233 52.3823C17.7926 52.5558 17.1568 53.0067 16.7491 53.6406C16.3413 54.2746 16.193 55.0426 16.3353 55.784C16.5237 56.5186 16.9619 57.1637 17.574 57.6072C18.186 58.0507 18.9332 58.2646 19.6858 58.2117C23.3566 58.2278 27.0275 58.2117 30.6984 58.2117C30.9405 58.1714 31.1882 58.1812 31.4265 58.2404C31.706 58.3854 32.1386 58.688 32.1012 58.8545C32.046 59.1248 31.6917 59.3701 31.4105 59.5599C31.2823 59.6458 31.0277 59.5796 30.8301 59.5796H18.1245C17.902 59.5796 17.6794 59.5688 17.4587 59.5796C17.1734 59.5778 16.8976 59.6825 16.6846 59.8732C16.4715 60.064 16.3363 60.3274 16.3051 60.6126C16.2783 60.908 16.3664 61.2024 16.551 61.4338C16.7356 61.6652 17.0023 61.8156 17.2949 61.8533C17.465 61.8799 17.6374 61.8895 17.8094 61.882C22.3193 61.882 26.8293 61.882 31.3393 61.882C32.1145 61.9231 32.8786 61.6819 33.4914 61.2024C34.1041 60.723 34.5245 60.0375 34.6754 59.2716C34.7549 58.5324 34.5576 57.79 34.1221 57.1892C33.6867 56.5884 33.0442 56.1723 32.3202 56.0221C31.8884 55.9311 31.4473 55.8926 31.0063 55.9075C27.3853 55.9075 23.7625 55.9075 20.1469 55.9075C19.9056 55.9466 19.6587 55.9282 19.4258 55.8538C19.1766 55.6963 18.8918 55.4224 18.8704 55.1807C18.8544 54.9837 19.1624 54.6954 19.4045 54.5683C19.662 54.4891 19.9333 54.4666 20.2003 54.5021C23.921 54.5021 27.6417 54.5164 31.3606 54.4932C31.858 54.5437 32.3601 54.4689 32.8216 54.2755C33.2831 54.0821 33.6894 53.7762 34.0039 53.3853C34.3183 52.9944 34.531 52.531 34.6228 52.0367C34.7146 51.5425 34.6825 51.033 34.5295 50.5544C34.2585 49.9083 33.7934 49.3636 33.1994 48.9967C32.6053 48.6297 31.9119 48.4588 31.2164 48.508C27.5206 48.508 23.8248 48.508 20.129 48.508C18.9381 48.508 18.1619 47.7685 18.4378 46.8089C18.5028 46.5819 18.6161 46.3718 18.7698 46.1931C18.9234 46.0144 19.1139 45.8715 19.3279 45.7741C20.122 45.6326 20.9292 45.5792 21.7348 45.6148C21.8434 45.6148 21.9876 45.749 22.0624 45.8529C22.4011 46.2951 22.8311 46.6581 23.3229 46.9168C23.8147 47.1755 24.3565 47.3238 24.9108 47.3514C26.2509 47.6044 27.6327 47.514 28.9289 47.0885C30.225 46.6629 31.3938 45.916 32.3273 44.9165C32.7526 44.4403 33.0504 43.8629 33.1925 43.239C33.6126 41.0637 31.7345 39.447 29.3418 39.9017C28.4873 40.1094 27.6446 40.3634 26.8174 40.6626"/>
<path d="M25.7242 17.6225C23.3241 17.7857 20.9534 17.0147 19.1027 15.4691C17.252 13.9234 16.063 11.7215 15.7816 9.3188C15.7611 6.8762 16.704 4.525 18.4037 2.78007C20.1034 1.03513 22.4214 0.0386854 24.8502 0.00893098C26.0787 -0.114327 27.3193 0.00985248 28.4996 0.374217C29.6799 0.738581 30.7762 1.33582 31.7244 2.13106C32.6726 2.92629 33.4537 3.90358 34.0221 5.00582C34.5905 6.10806 34.9348 7.31317 35.0349 8.55074C35.0244 9.76359 34.7742 10.9622 34.2989 12.077C33.8236 13.1917 33.1327 14.2003 32.2664 15.0441C31.4 15.8879 30.3755 16.5501 29.2524 16.9921C28.1293 17.4341 26.93 17.6472 25.7242 17.6189"/>
</svg>
