<svg width="23" height="22" viewBox="0 0 23 22" fill="none" xmlns="http://www.w3.org/2000/svg">
<path d="M5.50396 7.77148H0.813965V21.8788H5.50396V7.77148Z" fill="#B0B0BA"/>
<path d="M3.19353 0.96875C1.58894 0.96875 0.540527 2.02367 0.540527 3.40634C0.540527 4.75996 1.55706 5.84398 3.13146 5.84398H3.16175C4.79707 5.84398 5.81497 4.75996 5.81497 3.40634C5.78462 2.02367 4.79718 0.96875 3.19353 0.96875Z" fill="#B0B0BA"/>
<path d="M17.0179 7.43945C14.5301 7.43945 13.4158 8.80757 12.7918 9.76854V7.77119H8.10303C8.16521 9.09446 8.10303 21.8784 8.10303 21.8784H12.7918V13.9999C12.7918 13.5782 12.8221 13.1566 12.9464 12.8553C13.2848 12.0131 14.0568 11.1407 15.3522 11.1407C17.0482 11.1407 17.7276 12.4348 17.7276 14.3305V21.8784H22.4166V13.7885C22.4166 9.45523 20.1031 7.43945 17.0179 7.43945Z" fill="#B0B0BA"/>
</svg>
