<svg width="65" height="64" viewBox="0 0 65 64" fill="none" xmlns="http://www.w3.org/2000/svg">
<g clip-path="url(#clip0_646_3116)">
<path d="M63.653 32.56L51.797 44.416L52.613 45.232C59.285 44.752 63.093 53.264 58.261 57.936C53.573 62.768 45.109 58.976 45.557 52.288L44.741 51.472L32.885 63.328C32.725 63.488 32.517 63.568 32.325 63.568C32.133 63.568 31.909 63.488 31.765 63.328L19.909 51.472L19.093 52.288C19.573 58.944 11.029 62.768 6.38896 57.936C1.55696 53.312 5.39696 44.72 12.037 45.232L12.853 44.416L0.996958 32.56C0.676958 32.24 0.676958 31.744 0.996958 31.424L13.413 19.008C13.845 18.576 14.389 18.8 14.741 19.184C15.317 19.84 16.773 20.928 16.613 21.472C15.941 26.832 22.805 30.112 26.565 26.224C30.453 22.464 27.173 15.616 21.813 16.272C21.253 16.432 20.213 14.992 19.525 14.4C19.109 14.096 18.917 13.504 19.333 13.088L31.749 0.672007C32.069 0.352007 32.565 0.352007 32.885 0.672007L44.741 12.528L45.557 11.712C45.109 5.02401 53.589 1.23201 58.261 6.06401C63.093 10.736 59.285 19.232 52.613 18.768L51.797 19.584L63.653 31.44C63.973 31.76 63.973 32.256 63.653 32.576V32.56Z" fill="#1E949E"/>
</g>
<defs>
<clipPath id="clip0_646_3116">
<rect width="64" height="64" fill="white" transform="translate(0.125)"/>
</clipPath>
</defs>
</svg>
