<svg fill="currentColor" style="fill: currentColor" width="58" height="64" viewBox="0 0 58 64" xmlns="http://www.w3.org/2000/svg">
<path d="M38.7818 32.2668C38.2107 32.4374 37.6264 32.5604 37.0351 32.6345C37.438 33.4348 38.3903 34.1779 40.8536 35.0049C42.1514 35.4192 43.3075 36.1895 44.1912 37.2285C44.3619 37.4436 44.5968 37.5982 44.8615 37.6699C45.1262 37.7415 45.4068 37.7264 45.6623 37.6268C45.8839 37.532 46.0729 37.3739 46.2057 37.1724C46.3385 36.9708 46.4093 36.7346 46.4093 36.493C46.4098 36.3681 46.3899 36.2438 46.3504 36.1253C46.1365 35.4431 45.8518 34.7853 45.5008 34.1627C44.8516 34.4356 44.1739 34.6344 43.4803 34.7553C43.3324 34.7791 43.1813 34.7734 43.0356 34.7386C42.8899 34.7038 42.7525 34.6406 42.6311 34.5526C42.5098 34.4646 42.4069 34.3535 42.3284 34.2256C42.2499 34.0977 42.1973 33.9556 42.1736 33.8073C42.1499 33.6591 42.1555 33.5076 42.1902 33.3615C42.2249 33.2154 42.288 33.0776 42.3758 32.956C42.4636 32.8344 42.5744 32.7312 42.702 32.6525C42.8295 32.5738 42.9713 32.5211 43.1192 32.4973C45.0019 32.1888 46.688 31.1506 47.8139 29.6068C46.0619 30.1374 44.1725 29.9625 42.5471 29.119C42.0692 28.8678 41.6226 28.5608 41.2166 28.2044C40.2995 28.574 39.277 28.5831 38.3534 28.2299C37.4299 27.8766 36.6733 27.1871 36.2349 26.2989C36.1624 26.1641 36.1177 26.0161 36.1034 25.8637C36.0891 25.7113 36.1055 25.5575 36.1516 25.4115C36.1977 25.2656 36.2726 25.1304 36.3718 25.014C36.4711 24.8976 36.5926 24.8023 36.7292 24.7339C36.8658 24.6655 37.0148 24.6253 37.1672 24.6157C37.3196 24.606 37.4724 24.6272 37.6166 24.6779C37.7607 24.7286 37.8931 24.8078 38.0061 24.9109C38.1191 25.0139 38.2103 25.1386 38.2743 25.2776C38.3854 25.4917 38.5403 25.6799 38.7288 25.8298C38.9174 25.9798 39.1354 26.0882 39.3687 26.1479C39.6019 26.2076 39.845 26.2173 40.0822 26.1763C40.3194 26.1354 40.5454 26.0447 40.7452 25.9102C41.0801 25.6774 41.32 25.3313 41.4209 24.9354C41.5218 24.5396 41.477 24.1205 41.2945 23.7552C41.1594 23.4838 41.1374 23.1697 41.2333 22.8821C41.3292 22.5944 41.5351 22.3567 41.8058 22.2213C42.0765 22.0858 42.3898 22.0638 42.6767 22.1599C42.9637 22.256 43.2008 22.4625 43.3359 22.7338C43.6561 23.368 43.7971 24.0779 43.7435 24.7866C43.6899 25.4954 43.4438 26.1759 43.0318 26.7543C43.2077 26.8819 43.3925 26.9965 43.5849 27.0973C44.5396 27.575 45.6232 27.729 46.6727 27.5362C47.7223 27.3435 48.681 26.8143 49.4048 26.0284L49.4257 26.0074C50.0097 25.356 50.4081 24.559 50.579 23.7C50.7498 22.8411 50.687 21.9519 50.397 21.1257C50.1324 21.3336 49.8463 21.5125 49.5435 21.6592C49.4076 21.7263 49.2597 21.7656 49.1084 21.7748C48.9571 21.784 48.8055 21.7628 48.6625 21.7126C48.5194 21.6623 48.3878 21.584 48.2753 21.4822C48.1628 21.3804 48.0717 21.2571 48.0073 21.1196C47.9429 20.9821 47.9064 20.833 47.9001 20.6812C47.8938 20.5294 47.9178 20.3779 47.9705 20.2355C48.0233 20.093 48.1039 19.9626 48.2075 19.8517C48.3112 19.7409 48.4358 19.6519 48.5742 19.5899C49.0287 19.3758 49.4063 19.0265 49.6557 18.5895C49.93 18.1086 50.0304 17.5475 49.94 17.0009C49.8495 16.4544 49.5737 15.9559 49.1591 15.5896C48.7446 15.2232 48.2166 15.0115 47.6644 14.9901C47.1122 14.9687 46.5695 15.139 46.128 15.4722C45.886 15.6541 45.5819 15.7323 45.2825 15.6894C44.9831 15.6465 44.7129 15.4861 44.5314 15.2436C44.3499 15.001 44.272 14.6961 44.3148 14.3959C44.3576 14.0957 44.5175 13.8249 44.7595 13.643C45.2036 13.3113 45.703 13.0616 46.2344 12.9056C45.8718 11.351 45.0186 9.95516 43.8017 8.92535C42.5848 7.89554 41.0689 7.2867 39.4794 7.18925C39.4794 7.2769 39.506 7.35883 39.506 7.44839C39.506 7.7516 39.3858 8.0424 39.1719 8.2568C38.9581 8.4712 38.668 8.59165 38.3656 8.59165C38.0631 8.59165 37.773 8.4712 37.5592 8.2568C37.3453 8.0424 37.2251 7.7516 37.2251 7.44839C37.2251 6.81063 36.9724 6.19899 36.5226 5.74803C36.0727 5.29707 35.4626 5.04372 34.8265 5.04372C34.1903 5.04372 33.5802 5.29707 33.1303 5.74803C32.6805 6.19899 32.4278 6.81063 32.4278 7.44839C32.4278 7.7516 32.3076 8.0424 32.0938 8.2568C31.8799 8.4712 31.5898 8.59165 31.2874 8.59165C30.9849 8.59165 30.6948 8.4712 30.481 8.2568C30.2671 8.0424 30.1469 7.7516 30.1469 7.44839C30.1524 6.9366 30.2423 6.42925 30.413 5.9469C29.5167 5.355 28.468 5.03722 27.3947 5.03229C26.1583 5.03239 24.957 5.44413 23.9793 6.20286C23.0016 6.96159 22.3029 8.02434 21.9929 9.22426C21.9084 9.50753 21.7176 9.74693 21.4607 9.89219C21.2038 10.0374 20.9007 10.0773 20.6151 10.0033C20.3295 9.92932 20.0837 9.7473 19.9291 9.49545C19.7746 9.2436 19.7234 8.94152 19.7862 8.65263C19.849 8.40873 19.9383 8.17436 20.0238 7.93999C19.8868 7.91556 19.7484 7.89965 19.6095 7.89236C18.8187 7.89246 18.0517 8.16372 17.436 8.66111C16.8202 9.15849 16.3926 9.85207 16.2243 10.6267C16.86 10.6901 17.4756 10.8855 18.0319 11.2004C18.5882 11.5154 19.073 11.9429 19.4555 12.4559C19.636 12.6992 19.7126 13.0045 19.6686 13.3044C19.6246 13.6044 19.4635 13.8746 19.2208 14.0555C18.9781 14.2364 18.6736 14.3133 18.3743 14.2691C18.0751 14.225 17.8056 14.0635 17.6251 13.8202C17.4042 13.5204 17.116 13.2769 16.7838 13.1094C16.4517 12.9419 16.0849 12.8551 15.713 12.856C15.1874 12.858 14.6769 13.0324 14.2595 13.3526C13.8421 13.6729 13.5407 14.1213 13.4015 14.6294C13.2623 15.1375 13.2929 15.6774 13.4886 16.1664C13.6843 16.6555 14.0343 17.0668 14.4852 17.3376C14.6183 17.4125 14.7351 17.5134 14.8286 17.6344C14.9221 17.7553 14.9904 17.8938 15.0295 18.0418C15.0686 18.1897 15.0777 18.3439 15.0562 18.4954C15.0348 18.6469 14.9832 18.7926 14.9046 18.9237C14.8259 19.0549 14.7218 19.1688 14.5984 19.2589C14.475 19.349 14.3348 19.4133 14.1862 19.4481C14.0375 19.4828 13.8835 19.4873 13.733 19.4613C13.5826 19.4352 13.439 19.3792 13.3106 19.2964C13.0019 19.1044 12.7167 18.8768 12.461 18.6181C11.9543 19.7961 11.7819 21.0915 11.9629 22.3614C12.1439 23.6314 12.6711 24.8266 13.4865 25.8153C14.3019 26.8039 15.3738 27.5477 16.584 27.9646C17.7942 28.3814 19.0957 28.4552 20.345 28.1777C20.2798 27.8 20.2448 27.4177 20.2405 27.0344C19.2708 26.9284 18.3742 26.4676 17.7222 25.7402C17.0703 25.0128 16.7088 24.07 16.7071 23.0921C16.7066 22.7875 16.8262 22.495 17.0398 22.2784C17.2534 22.0617 17.5437 21.9385 17.8475 21.9355C17.9965 21.9337 18.1443 21.9616 18.2825 22.0174C18.4207 22.0733 18.5464 22.1561 18.6525 22.261C18.7585 22.3659 18.8428 22.4908 18.9003 22.6286C18.9579 22.7663 18.9877 22.9141 18.9879 23.0635V23.0921C18.9956 23.5268 19.1677 23.9424 19.4694 24.2547C19.7711 24.5671 20.1799 24.7529 20.613 24.7746C20.774 24.2616 20.9927 23.7688 21.265 23.3055C21.4233 23.0513 21.6748 22.8696 21.9654 22.7995C22.256 22.7294 22.5624 22.7764 22.8188 22.9305C23.0751 23.0846 23.2608 23.3334 23.336 23.6234C23.4112 23.9134 23.3698 24.2214 23.2208 24.4811C22.6041 25.5297 22.3995 26.7712 22.6471 27.9629C22.8948 29.1547 23.5768 30.211 24.5599 30.9255C25.543 31.64 26.7565 31.9613 27.9633 31.8267C29.1701 31.6921 30.2835 31.1112 31.0859 30.1975C31.245 30.0257 31.4498 29.9032 31.6761 29.8444C31.9025 29.7856 32.1409 29.7931 32.3631 29.8659C33.5622 30.3449 34.8551 30.5405 36.1417 30.4375C36.8092 30.3924 37.4693 30.2702 38.109 30.0736C38.3962 29.991 38.7043 30.0247 38.967 30.1675C39.2297 30.3103 39.426 30.5507 39.5137 30.8371C39.6013 31.1235 39.5734 31.433 39.4358 31.6989C39.2982 31.9648 39.062 32.166 38.778 32.2592L38.7818 32.2668ZM24.6748 17.1357C24.6748 17.2858 24.6453 17.4345 24.588 17.5732C24.5307 17.7119 24.4467 17.8379 24.3408 17.9441C24.2349 18.0502 24.1092 18.1344 23.9708 18.1919C23.8325 18.2494 23.6842 18.2789 23.5344 18.2789C23.3847 18.2789 23.2364 18.2494 23.098 18.1919C22.9596 18.1344 22.8339 18.0502 22.728 17.9441C22.6221 17.8379 22.5381 17.7119 22.4808 17.5732C22.4235 17.4345 22.394 17.2858 22.394 17.1357C22.396 15.742 22.9491 14.406 23.9322 13.4205C24.9152 12.4351 26.2478 11.8806 27.638 11.8785C27.9405 11.8785 28.2305 11.999 28.4444 12.2134C28.6583 12.4278 28.7784 12.7186 28.7784 13.0218C28.7784 13.325 28.6583 13.6158 28.4444 13.8302C28.2305 14.0446 27.9405 14.1651 27.638 14.1651C27.2482 14.1641 26.8621 14.2402 26.5017 14.389C26.1413 14.5378 25.8138 14.7565 25.5378 15.0324C25.2619 15.3084 25.0429 15.6362 24.8935 15.9971C24.7441 16.358 24.6672 16.7449 24.6672 17.1357H24.6748ZM33.6176 23.2998C33.2085 24.38 32.4799 25.309 31.5295 25.9625C30.579 26.6161 29.452 26.9628 28.2995 26.9563C27.997 26.9563 27.7069 26.8359 27.4931 26.6215C27.2792 26.407 27.159 26.1163 27.159 25.813C27.159 25.5098 27.2792 25.219 27.4931 25.0046C27.7069 24.7902 27.997 24.6698 28.2995 24.6698C28.8428 24.671 29.3786 24.5413 29.8615 24.2916C30.3444 24.0419 30.7605 23.6795 31.0745 23.235C29.668 22.9317 28.3922 22.1932 27.427 21.1237C27.251 20.8954 27.1676 20.6089 27.1935 20.3215C27.2195 20.0341 27.3529 19.7672 27.5669 19.5743C27.781 19.3814 28.0599 19.2768 28.3477 19.2814C28.6355 19.2861 28.9109 19.3997 29.1187 19.5994C29.8749 20.4093 30.8943 20.9227 31.9939 21.0474C33.0936 21.172 34.2016 20.8998 35.1192 20.2796C36.1029 19.5974 36.7789 18.5541 37.0009 17.3757C37.0252 17.2247 37.0795 17.0802 37.1606 16.9506C37.2417 16.821 37.3479 16.7091 37.4729 16.6214C37.5979 16.5337 37.7392 16.472 37.8884 16.4401C38.0376 16.4081 38.1917 16.4065 38.3415 16.4353C38.4914 16.4641 38.6339 16.5228 38.7608 16.6079C38.8876 16.6929 38.9961 16.8026 39.0798 16.9304C39.1636 17.0583 39.2209 17.2017 39.2484 17.3521C39.2759 17.5026 39.273 17.6571 39.2399 17.8064C38.9731 19.1887 38.2906 20.4561 37.2842 21.4381C36.2778 22.4201 34.9956 23.0698 33.61 23.2998H33.6176Z"/>
<path d="M53.0429 35.1173C55.2933 32.0686 57.4145 29.1914 57.4886 24.0371C57.5534 20.9828 57.1815 17.9349 56.3843 14.9863C55.3822 11.5207 53.2735 8.48036 50.3819 6.33178C42.9787 0.497311 36.5068 -1.83686 21.63 1.60628C17.8889 2.18503 14.4041 3.86644 11.6191 6.43657C9.81879 8.3667 8.42964 10.6443 7.53638 13.1304C7.1482 14.2636 6.8308 15.4199 6.58603 16.5926L6.4948 16.9908C6.21351 18.0563 5.83165 19.0924 5.35438 20.0853C4.98868 20.7675 4.73213 21.5031 4.5941 22.2651C4.64352 22.6176 5.07688 23.0177 5.54445 23.4407C6.0093 23.7705 6.39838 24.1962 6.68556 24.6892C6.97274 25.1821 7.15137 25.731 7.20946 26.2989C7.18889 26.8599 7.02881 27.4068 6.74379 27.89C6.67676 28.0125 6.61895 28.1399 6.57083 28.271C6.34616 30.0844 5.58484 31.7887 4.38502 33.1642C2.87954 34.5921 1.57279 36.2168 0.5 37.9945C0.737047 38.2204 0.991238 38.4274 1.26028 38.6138C1.53487 38.7969 1.82267 38.9593 2.12129 39.0997C3.09445 39.5989 4.42874 40.2829 4.69294 41.6854C4.85785 42.5477 4.7509 43.44 4.38693 44.2386C4.19686 44.6483 3.99348 45.0008 3.81672 45.3152L3.62665 45.6487C4.09422 46.0298 4.74426 46.5137 5.01796 46.7176C5.14004 46.8086 5.24274 46.923 5.32003 47.0544C5.39731 47.1857 5.44762 47.3311 5.46799 47.4822C5.48836 47.6333 5.47837 47.787 5.43862 47.9341C5.39887 48.0813 5.33016 48.219 5.23654 48.3392C5.06769 48.5603 4.92125 48.7977 4.79938 49.048L5.04267 49.189C5.53846 49.4054 5.98187 49.7265 6.34267 50.1303C6.70347 50.5341 6.97319 51.0111 7.13343 51.5289C7.31168 52.3131 7.28153 53.1304 7.046 53.8992C6.76347 54.8179 6.80373 55.8059 7.16004 56.6983C7.27965 57.2057 7.58981 57.6473 8.02597 57.9312C8.46213 58.2152 8.99071 58.3196 9.5017 58.2227C12.8102 57.4148 16.0728 56.4282 19.2751 55.2673C20.3813 54.8863 21.3925 54.5318 22.2098 54.2384C23.0822 53.9316 23.7417 53.6992 24.0762 53.5944C28.7995 52.1081 29.7593 50.3856 29.7308 49.2119C29.7237 48.9089 29.8368 48.6156 30.0453 48.3962C30.2537 48.1768 30.5406 48.0494 30.8427 48.0419C30.9934 48.0341 31.144 48.0572 31.2855 48.1098C31.4269 48.1623 31.5562 48.2433 31.6654 48.3476C31.7747 48.4519 31.8615 48.5774 31.9207 48.7165C31.9799 48.8556 32.0102 49.0054 32.0098 49.1566C32.0763 52.0148 29.6377 54.2384 24.7624 55.7761C24.4431 55.8771 23.812 56.1 22.9662 56.3973L22.1147 56.6964C23.8377 58.5565 25.119 60.7829 25.8629 63.2092C25.9392 63.4379 26.0848 63.6369 26.2794 63.7787C26.4739 63.9204 26.7077 63.9978 26.9482 64H41.2794C39.1678 58.0607 37.2671 51.2793 38.512 44.2729C38.6014 43.7661 38.7021 43.2535 38.8162 42.7353C39.4094 40.7973 39.475 38.7355 39.0062 36.7636C36.4346 35.7404 35.1307 34.5457 34.6346 32.7164C33.8267 32.6502 33.0286 32.4943 32.2549 32.2515C31.4523 33.0028 30.4877 33.5585 29.4361 33.8754C28.3844 34.1922 27.2741 34.2618 26.1913 34.0786C25.1085 33.8953 24.0824 33.4643 23.1928 32.8189C22.3031 32.1736 21.5739 31.3313 21.0617 30.3575C19.2558 30.7963 17.3599 30.68 15.6208 30.0238C13.8816 29.3675 12.3798 28.2018 11.3106 26.6781C10.2415 25.1545 9.65453 23.3435 9.62615 21.4808C9.59777 19.6181 10.1293 17.79 11.1515 16.2344C10.9083 15.1656 11.0521 14.045 11.5574 13.0728C12.0626 12.1006 12.8963 11.3403 13.9094 10.9277C13.9617 10.075 14.2048 9.24497 14.6207 8.49923C15.0365 7.75349 15.6144 7.11113 16.3116 6.61976C17.0087 6.12839 17.8073 5.80061 18.648 5.66071C19.4887 5.5208 20.35 5.57237 21.1682 5.81159C21.9036 4.86001 22.8454 4.08873 23.9222 3.55622C24.9991 3.02371 26.1827 2.74394 27.3835 2.73811C28.8944 2.74067 30.3724 3.18139 31.6391 4.00714C32.1359 3.53745 32.7299 3.18353 33.3789 2.97065C34.0279 2.75777 34.7158 2.69118 35.3934 2.77564C36.071 2.8601 36.7216 3.09352 37.2989 3.45924C37.8761 3.82495 38.3656 4.31393 38.7325 4.89126C38.8466 4.89126 38.9473 4.87221 39.0575 4.87221C41.3115 4.88345 43.4911 5.68178 45.2214 7.12985C46.9517 8.57793 48.1246 10.5852 48.5382 12.8065C49.1991 12.9461 49.8217 13.2281 50.3631 13.6329C50.9045 14.0377 51.3516 14.5556 51.6736 15.1508C51.9956 15.7459 52.1847 16.4041 52.2278 17.0798C52.2709 17.7555 52.167 18.4325 51.9234 19.0639C52.6875 20.3276 53.0376 21.7994 52.9244 23.2728C52.8113 24.7461 52.2405 26.1469 51.2923 27.2783C50.7928 29.6176 49.4432 31.687 47.5061 33.0842C47.921 33.8229 48.2585 34.6025 48.5135 35.4107C48.6288 35.7592 48.6872 36.124 48.6865 36.4911C48.6857 37.1356 48.5079 37.7674 48.1726 38.3172C47.8373 38.8671 47.3575 39.3138 46.7858 39.6084C46.6922 40.8166 46.5079 42.016 46.2346 43.1964C46.13 43.6937 46.0274 44.1853 45.9419 44.6712C44.7387 51.4393 46.7668 58.156 48.8879 64.0038H49.9542C50.147 64.0036 50.3366 63.9543 50.5052 63.8607C50.6739 63.7671 50.8161 63.6322 50.9186 63.4685C51.0211 63.3048 51.0806 63.1178 51.0914 62.9248C51.1023 62.7319 51.0641 62.5393 50.9806 62.3651C49.4342 58.9544 48.4704 55.3074 48.1296 51.5765C47.6773 47.7541 48.25 43.88 49.7889 40.3535C50.6709 38.4894 51.7626 36.7326 53.0429 35.1173Z"/>
<path d="M43.6875 44.2634C43.7769 43.7566 43.8776 43.2345 43.9935 42.7181C44.2043 41.7928 44.3635 40.8564 44.4706 39.9133C43.678 39.7442 42.964 39.3159 42.4407 38.6957C42.1837 38.3935 41.8899 38.1246 41.5663 37.8954C41.6683 39.6767 41.4939 41.463 41.0494 43.1907C40.9448 43.6842 40.8422 44.1739 40.7586 44.6579C39.5554 51.4241 41.5835 58.1427 43.7046 63.9905H46.4568C44.3414 58.0531 42.4426 51.2717 43.6875 44.2634Z"/>
</svg>
