<svg width="79" height="64" viewBox="0 0 79 64" fill="none" xmlns="http://www.w3.org/2000/svg">
<path fill-rule="evenodd" clip-rule="evenodd" d="M67.7009 2.78285C66.9636 2.78285 66.254 3.07502 65.7323 3.59675L10.0803 59.2487C8.99504 60.3375 8.99504 62.0974 10.0803 63.1861C11.169 64.2714 12.929 64.2714 14.0177 63.1861L24.3342 52.8696H64.9183C72.5705 52.8696 78.8313 46.6088 78.8313 38.9566C78.8313 32.2645 73.9479 26.901 67.6315 25.593C67.6384 25.4121 67.7011 25.2417 67.7011 25.0608V25.0539V25.0469V25.0434C67.7011 20.8035 65.7671 17.0052 62.7515 14.4518L69.6697 7.53354V7.53006C70.755 6.4448 70.755 4.68486 69.6697 3.59613C69.148 3.07439 68.4383 2.78285 67.7009 2.78285Z" fill="#1E949E"/>
<path fill-rule="evenodd" clip-rule="evenodd" d="M34.3099 0C23.5865 0 14.8317 8.75473 14.8317 19.4782V19.4991C14.8317 19.6765 14.8735 19.8539 14.8804 20.0312C7.03697 21.3877 0.918457 27.9547 0.918457 36.1739C0.918457 42.7408 4.76192 48.4351 10.3027 51.1581L51.1931 10.2677C47.8505 4.09723 41.5171 0 34.3099 0Z" fill="#1E949E"/>
</svg>
