<svg fill="currentColor" style="fill: currentColor" width="64" height="64" viewBox="0 0 64 64" xmlns="http://www.w3.org/2000/svg">
<path d="M24.3774 52.7504C25.4897 52.7499 26.5769 52.4196 27.5016 51.8013C28.4262 51.183 29.1468 50.3044 29.5721 49.2766C29.9975 48.2488 30.1086 47.1179 29.8913 46.027C29.6741 44.9361 29.1382 43.9341 28.3516 43.1477C27.5649 42.3613 26.5627 41.8257 25.4718 41.6088C24.3808 41.3919 23.25 41.5034 22.2223 41.9291C21.1947 42.3548 20.3163 43.0756 19.6983 44.0005C19.0803 44.9253 18.7504 46.0127 18.7502 47.125C18.7518 48.6168 19.3453 50.0469 20.4003 51.1016C21.4553 52.1563 22.8856 52.7493 24.3774 52.7504ZM24.3774 45.2503C24.7481 45.2503 25.1106 45.3602 25.4189 45.5662C25.7272 45.7722 25.9675 46.065 26.1094 46.4076C26.2512 46.7501 26.2884 47.1271 26.216 47.4908C26.1437 47.8544 25.9652 48.1885 25.703 48.4506C25.4408 48.7128 25.1068 48.8914 24.7431 48.9637C24.3794 49.036 24.0025 48.9989 23.6599 48.857C23.3174 48.7151 23.0246 48.4749 22.8186 48.1666C22.6126 47.8583 22.5027 47.4958 22.5027 47.125C22.5027 46.6278 22.7002 46.151 23.0517 45.7994C23.4033 45.4478 23.8802 45.2503 24.3774 45.2503Z"/>
<path d="M0.321946 48.1732C0.757263 48.8174 11.1209 64.0005 24.3779 64.0005C37.6348 64.0005 47.9985 48.8174 48.4338 48.1732C48.6414 47.8634 48.7522 47.4989 48.7522 47.126C48.7522 46.753 48.6414 46.3885 48.4338 46.0787C47.9985 45.4339 37.6348 30.2496 24.3779 30.2496C14.778 30.2496 5.3308 38.709 0.318323 46.0811C0.112047 46.3909 0.00228767 46.7549 0.00293251 47.1271C0.00357735 47.4993 0.114597 47.8629 0.321946 48.172V48.1732ZM24.3779 37.7509C26.232 37.7509 28.0445 38.3007 29.5862 39.3308C31.1278 40.3609 32.3294 41.825 33.039 43.5381C33.7485 45.2511 33.9342 47.136 33.5724 48.9546C33.2107 50.7731 32.3179 52.4435 31.0068 53.7546C29.6957 55.0657 28.0253 55.9586 26.2068 56.3203C24.3883 56.682 22.5033 56.4964 20.7903 55.7868C19.0773 55.0773 17.6132 53.8757 16.5831 52.334C15.553 50.7923 15.0032 48.9798 15.0032 47.1256C15.0056 44.64 15.994 42.2569 17.7516 40.4993C19.5092 38.7417 21.8923 37.7533 24.3779 37.7509Z"/>
<path d="M62.1278 -0.000724519H9.37785C9.13125 -0.00144111 8.88693 0.0465832 8.65894 0.140588C8.43096 0.234594 8.22379 0.372727 8.04936 0.54705C7.87493 0.721372 7.73666 0.928448 7.64251 1.15638C7.54836 1.3843 7.50018 1.62859 7.50074 1.8752V33.0861C13.0759 28.7292 18.7429 26.5049 24.3754 26.5049C39.2885 26.5049 50.3284 42.1934 51.5372 43.9806C52.0253 44.7118 52.3344 45.5478 52.4393 46.4207C52.5442 47.2937 52.442 48.1791 52.1409 49.0052H62.1224C62.3687 49.0056 62.6127 48.9573 62.8403 48.8633C63.0679 48.7692 63.2747 48.6311 63.4489 48.457C63.6231 48.2828 63.7611 48.076 63.8552 47.8483C63.9493 47.6207 63.9975 47.3767 63.9971 47.1304V1.8752C63.9977 1.62925 63.9497 1.38561 63.8561 1.15819C63.7624 0.930777 63.6249 0.72405 63.4513 0.549831C63.2777 0.375611 63.0714 0.237315 62.8443 0.142847C62.6173 0.0483789 62.3738 -0.000407795 62.1278 -0.000724519ZM33.8781 20.6242C33.8781 21.1215 33.6806 21.5984 33.329 21.95C32.9773 22.3017 32.5004 22.4992 32.0031 22.4992C31.5059 22.4992 31.029 22.3017 30.6773 21.95C30.3257 21.5984 30.1281 21.1215 30.1281 20.6242V11.2506H26.3781V20.6254C26.3781 21.1227 26.1806 21.5996 25.829 21.9512C25.4773 22.3029 25.0004 22.5004 24.5031 22.5004C24.0059 22.5004 23.5289 22.3029 23.1773 21.9512C22.8257 21.5996 22.6281 21.1227 22.6281 20.6254V11.2506H18.8781V20.6254C18.8781 21.1227 18.6806 21.5996 18.329 21.9512C17.9773 22.3029 17.5004 22.5004 17.0031 22.5004C16.5059 22.5004 16.0289 22.3029 15.6773 21.9512C15.3257 21.5996 15.1281 21.1227 15.1281 20.6254V9.37528C15.1277 9.12897 15.176 8.88501 15.27 8.65738C15.3641 8.42975 15.5022 8.22293 15.6763 8.04876C15.8505 7.8746 16.0573 7.73653 16.2849 7.64245C16.5126 7.54838 16.7565 7.50016 17.0028 7.50056H32.0028C32.2491 7.50016 32.4931 7.54838 32.7207 7.64245C32.9484 7.73653 33.1552 7.8746 33.3293 8.04876C33.5035 8.22293 33.6416 8.42975 33.7357 8.65738C33.8297 8.88501 33.8779 9.12897 33.8775 9.37528L33.8781 20.6242ZM54.5029 33.999H50.7529C50.2556 33.999 49.7787 33.8014 49.427 33.4498C49.0754 33.0982 48.8778 32.6212 48.8778 32.124C48.8778 31.6267 49.0754 31.1497 49.427 30.7981C49.7787 30.4465 50.2556 30.2489 50.7529 30.2489H54.5029C55.0001 30.2489 55.4771 30.4465 55.8287 30.7981C56.1803 31.1497 56.3779 31.6267 56.3779 32.124C56.3779 32.6212 56.1803 33.0982 55.8287 33.4498C55.4771 33.8014 55.0001 33.999 54.5029 33.999ZM56.3776 20.6242C56.378 20.8705 56.3297 21.1144 56.2357 21.3421C56.1416 21.5697 56.0035 21.7765 55.8294 21.9507C55.6552 22.1249 55.4484 22.2629 55.2207 22.357C54.9931 22.4511 54.7492 22.4993 54.5029 22.4989H39.5004C39.2541 22.4993 39.0102 22.4511 38.7825 22.357C38.5549 22.2629 38.3481 22.1249 38.1739 21.9507C37.9998 21.7765 37.8617 21.5697 37.7676 21.3421C37.6736 21.1144 37.6253 20.8705 37.6257 20.6242V9.37528C37.6257 8.87799 37.8233 8.40107 38.1749 8.04944C38.5265 7.6978 39.0035 7.50026 39.5007 7.50026C39.998 7.50026 40.4749 7.6978 40.8266 8.04944C41.1782 8.40107 41.3757 8.87799 41.3757 9.37528V18.7507H45.1257V9.37528C45.1257 8.87799 45.3233 8.40107 45.6749 8.04944C46.0265 7.6978 46.5035 7.50026 47.0007 7.50026C47.498 7.50026 47.9749 7.6978 48.3266 8.04944C48.6782 8.40107 48.8757 8.87799 48.8757 9.37528V18.7507H52.6257V9.37528C52.6257 8.87799 52.8233 8.40107 53.1749 8.04944C53.5265 7.6978 54.0035 7.50026 54.5007 7.50026C54.998 7.50026 55.4749 7.6978 55.8266 8.04944C56.1782 8.40107 56.3757 8.87799 56.3757 9.37528L56.3776 20.6242Z"/>
</svg>
