<svg width="64" height="64" viewBox="0 0 64 64" fill="none" xmlns="http://www.w3.org/2000/svg">
<g clip-path="url(#clip0_91_1864)">
<path d="M59.4396 14.7044L45.3404 0H24.7141L39.4397 14.7252C40.2777 15.5807 41.3757 16.134 42.5618 16.2987H44.1228C44.8919 16.299 45.6437 16.5274 46.283 16.955C46.9223 17.3826 47.4203 17.9902 47.7142 18.701C48.0081 19.4117 48.0846 20.1936 47.934 20.9478C47.7834 21.702 47.4125 22.3946 46.8681 22.938C46.1067 23.6922 45.1218 24.1798 44.0604 24.3283C44.0147 25.345 43.5714 26.303 42.8259 26.9958C42.0805 27.6887 41.0926 28.0609 40.0753 28.0322C39.058 28.0036 38.0927 27.5763 37.3875 26.8426C36.6822 26.1089 36.2935 25.1274 36.3052 24.1098C36.3052 24.1098 36.3052 23.4105 36.3052 22.5634C36.1447 21.3773 35.5932 20.2787 34.7379 19.4414L15.2855 0H-0.00219727V17.3393L26.6664 37.3073V64H40.6677V45.722C40.6813 44.5256 40.297 43.3586 39.575 42.4044L38.4761 41.3055C37.9315 40.7619 37.5605 40.0689 37.41 39.3143C37.2595 38.5597 37.3364 37.7774 37.6308 37.0665C37.9252 36.3556 38.4239 35.748 39.0638 35.3207C39.7037 34.8934 40.4561 34.6656 41.2256 34.6661C42.2995 34.6696 43.3432 35.0216 44.1998 35.6693C44.9531 34.9966 45.939 34.6441 46.948 34.6867C47.9571 34.7294 48.9097 35.1638 49.6035 35.8977C50.2973 36.6316 50.6776 37.6071 50.6635 38.6169C50.6494 39.6267 50.2421 40.5912 49.5281 41.3055C49.5281 41.3055 49.0328 41.8008 48.4354 42.4044C47.7114 43.3579 47.3248 44.5249 47.3364 45.722V64H59.3168L63.8958 28.2016C64.1169 25.7653 63.8355 23.3096 63.069 20.9865C62.3025 18.6634 61.0672 16.5224 59.4396 14.6961V14.7044ZM51.6782 33.3154L50.3399 32.5578C47.2178 30.7845 47.2178 27.8832 50.3399 26.1058L51.6782 25.3482C54.8002 23.5749 57.3353 25.3606 57.3353 29.3297C57.3353 33.2987 54.794 35.0845 51.6782 33.3112V33.3154Z" fill="#29858D"/>
</g>
<defs>
<clipPath id="clip0_91_1864">
<rect width="64" height="64" fill="white"/>
</clipPath>
</defs>
</svg>
