<svg width="40" height="42" viewBox="0 0 40 42" fill="none" xmlns="http://www.w3.org/2000/svg">
<g clip-path="url(#clip0_537_478)">
<path d="M32.0668 31.7494V31.4332C32.0668 30.3875 30.4261 30.3875 30.4261 31.4332V31.7494C30.4261 32.7952 32.0668 32.7952 32.0668 31.7494Z" fill="#1E949E"/>
<path d="M22.7891 22.605V32.2033C22.7891 36.8402 27.4402 39.6127 31.2465 41.2016C35.0445 39.6127 39.6957 36.8402 39.6957 32.2033V22.605L31.2465 20.2217L22.7891 22.605ZM35.8402 33.8651C35.8402 34.4893 35.3234 34.9919 34.6836 34.9919H27.793C27.1613 34.9919 26.6445 34.4893 26.6445 33.8651V28.1905H35.8402V33.8651ZM34.9379 26.48V26.5692H33.2973V26.48C33.2973 23.8697 29.1957 23.8697 29.1957 26.48V26.5692H27.5551V26.48C27.5551 24.4939 29.2285 22.832 31.2465 22.832C33.2562 22.832 34.9379 24.4939 34.9379 26.48Z" fill="#1E949E"/>
<path d="M21.1485 32.2032V21.8105H9.32776C4.34026 21.8105 0.304321 25.799 0.304321 30.7278V41.2664H27.6207C24.2574 39.2803 21.1649 36.3538 21.1485 32.2032Z" fill="#1E949E"/>
<path d="M5.67731 12.2369C6.34177 15.7705 9.02419 18.7303 12.5023 19.776C18.7285 21.6405 25.209 16.8892 25.209 10.4615C25.209 6.83785 23.0926 3.44118 19.8277 1.78743C16.5136 0.117464 12.4121 0.474155 9.44255 2.68726C6.48942 4.88415 5.01286 8.63752 5.67731 12.2369Z" fill="#1E949E"/>
</g>
<defs>
<clipPath id="clip0_537_478">
<rect width="40" height="42" fill="white"/>
</clipPath>
</defs>
</svg>
