<svg fill="currentColor" style="fill: currentColor" width="51" height="64" viewBox="0 0 51 64" xmlns="http://www.w3.org/2000/svg">
<g clip-path="url(#clip0_91_1876)">
<path d="M49.2655 32.5737L36.7909 21.9976C35.4172 20.8568 33.8228 20.0119 32.1074 19.5157C33.536 18.6049 34.7161 17.3539 35.5422 15.8748C36.3682 14.3956 36.8142 12.7346 36.8403 11.0407C36.6179 8.18736 35.3274 5.52292 33.2265 3.57943C31.1257 1.63593 28.369 0.556396 25.507 0.556396C22.6451 0.556396 19.8884 1.63593 17.7876 3.57943C15.6867 5.52292 14.3962 8.18736 14.1738 11.0407C14.1988 12.7343 14.6436 14.3952 15.4684 15.8746C16.2932 17.354 17.4721 18.6057 18.8996 19.5175C17.1842 20.0135 15.5898 20.8585 14.2161 21.9993L1.73978 32.5755C1.20241 33.0203 0.768402 33.5768 0.467946 34.2063C0.167491 34.8358 0.00780402 35.5232 0 36.2207C0.0318517 36.9043 0.198336 37.5748 0.489907 38.1938C0.781478 38.8128 1.1924 39.3682 1.6991 39.828C2.20579 40.2879 2.79828 40.6432 3.4426 40.8735C4.08692 41.1039 4.77038 41.2048 5.45378 41.1704C6.85158 41.1749 8.20088 40.6583 9.23827 39.7214L14.3166 35.0256C14.4709 36.5929 14.7599 38.1439 15.1803 39.6615L10.0791 46.2134C9.1163 47.3768 8.56894 48.8281 8.5236 50.3375C8.47827 51.8469 8.93754 53.3284 9.82877 54.5475L14.7273 61.3426C15.22 62.0047 15.8628 62.5403 16.6029 62.9056C17.3429 63.2708 18.159 63.4553 18.9842 63.4438C20.2847 63.491 21.5511 63.0216 22.5066 62.1381C23.4621 61.2546 24.0291 60.0288 24.0837 58.7286V58.0887C24.0763 57.005 23.6804 55.9598 22.9679 55.1432L19.0195 50.5814L21.2475 49.0373C22.5037 49.8866 23.9854 50.3405 25.5018 50.3405C27.0181 50.3405 28.4998 49.8866 29.756 49.0373L31.9823 50.5814L28.0268 55.1397C27.3137 55.956 26.9177 57.0013 26.911 58.0852V58.7286C26.9683 60.0301 27.5378 61.2561 28.4954 62.1394C29.453 63.0227 30.721 63.4916 32.0228 63.4438C32.8458 63.4538 33.6594 63.2686 34.3969 62.9033C35.1344 62.5381 35.7748 62.0032 36.2656 61.3426L41.2206 54.4681C42.0939 53.2754 42.5453 51.8259 42.5039 50.3483C42.4624 48.8706 41.9303 47.4487 40.9914 46.3069L35.8126 39.6615C36.2337 38.1445 36.5233 36.5941 36.6781 35.0274L41.7564 39.7232C42.8212 40.6761 44.2056 41.1934 45.6344 41.1721C46.9996 41.2218 48.329 40.7291 49.332 39.8016C50.3351 38.8742 50.9303 37.5874 50.9877 36.2225C50.9806 35.5251 50.8218 34.8377 50.5223 34.2079C50.2228 33.5781 49.7897 33.021 49.2532 32.5755L49.2655 32.5737ZM25.4991 47.7206C22.5448 47.7206 19.7104 44.6235 18.1769 39.8607H32.8214C31.2878 44.627 28.4552 47.7206 25.4991 47.7206Z"/>
</g>
<defs>
<clipPath id="clip0_91_1876">
<rect width="51" height="62.8806" transform="translate(0 0.559692)"/>
</clipPath>
</defs>
</svg>
