<svg id="fi_16341536" enable-background="new 0 0 100 100" viewBox="0 0 100 100" fill="white" xmlns="http://www.w3.org/2000/svg"><path d="m5.1070189 42.6776047c-1.6749215-4.5321426-2.8572195-9.1628075-2.5616448-14.0890465.1970496-3.0542717 1.3793476-5.6159153 3.6454179-7.7834606 2.3645964-2.2660694 4.7291918-4.7291908 7.0937862-6.9952621 3.0542698-3.0542688 6.9952621-3.0542688 10.04953 0 1.8719711 1.8719711 3.8424664 3.8424683 5.7144375 5.7144375 1.8719711 1.8719711 3.7439423 3.6454201 5.5173874 5.5173912 3.2513199 3.2513199 3.2513199 7.0937843 0 10.3451042-2.2660713 2.3645973-4.6306667 4.6306686-6.9952602 6.8967361-.5911503.5911484-.6896744 1.0837784-.3941002 1.8719788 1.5763969 3.7439423 3.7439423 6.9952583 6.3055897 10.1480522 5.024765 6.2070656 10.8377266 11.7244492 17.6359406 16.0595474 1.4778709.8867188 3.0542679 1.5763931 4.6306686 2.3645935.7881966.394104 1.2808189.295578 1.9704933-.394104 2.2660751-2.3645935 4.6306725-4.729187 6.995266-7.0937805 3.0542679-3.0542679 6.9952545-3.0542679 10.0495224 0 3.7439499 3.7439499 7.5864105 7.4878845 11.3303528 11.3303528 3.1527939 3.1527939 3.1527939 7.0937805 0 10.246582-2.1675415 2.1675415-4.4336166 4.2365723-6.4041061 6.5026398-2.9557495 3.2513199-6.6011658 4.3350906-10.8377304 4.1380386-6.1085358-.295578-11.822979-2.3646011-17.2418404-5.024765-12.1185532-5.9114914-22.5621815-14.0890503-31.2323647-24.4341507-6.5026378-7.5864182-11.822977-15.9610253-15.2713456-25.3208847zm92.3704744 2.0769615c-2.2489243-22.1946163-19.8594513-39.8657713-42.0263748-42.2082837-2.6760826-.2827976-5.022686 1.7730143-5.022686 4.4639959v.0860453c0 2.305078 1.7475281 4.2205386 4.039917 4.4620624 17.8650245 1.8822439 32.1644249 16.1027505 34.0702781 34.0283372.2456741 2.3106766 2.1878738 4.0644722 4.5114365 4.0389404h.0000153c2.6108169-.0286865 4.6906356-2.2734222 4.4274139-4.8710975zm-47.0490647-20.7359142v.0629139c0 2.1482372 1.5047836 4.0575371 3.6221886 4.420208 4.351284.7452908 8.3767281 2.8243656 11.5506325 5.9982719s5.2529755 7.1993446 5.9982681 11.5506363c.3626709 2.1174049 2.2719727 3.6221886 4.4202118 3.6221886h.0395126c2.7709503 0 4.9226227-2.4918022 4.4381104-5.2200699-2.249649-12.6677151-12.261734-22.6825562-24.8668022-24.8750553-2.7227516-.473589-5.2021218 1.6772727-5.2021218 4.4409065z"></path></svg>