<svg fill="currentColor" style="fill: currentColor" width="64" height="62" viewBox="0 0 64 62" xmlns="http://www.w3.org/2000/svg">
<path d="M62.1247 62H1.87529C1.37808 62 0.901228 61.8041 0.549569 61.4555C0.197909 61.1068 0.000232448 60.6338 0 60.1406C0 58.1673 0.790205 56.2749 2.19678 54.8795C3.60335 53.4842 5.51108 52.7003 7.50027 52.7003H56.4997C57.4847 52.7003 58.46 52.8928 59.37 53.2667C60.2799 53.6406 61.1068 54.1886 61.8032 54.8795C62.4997 55.5704 63.0522 56.3906 63.4291 57.2933C63.806 58.196 64 59.1635 64 60.1406C63.9998 60.6338 63.8021 61.1068 63.4504 61.4555C63.0988 61.8041 62.6219 62 62.1247 62Z"/>
<path d="M6.87518 48.9807C5.5154 48.9807 4.18615 48.5807 3.05554 47.8313C1.92492 47.0819 1.04371 46.0167 0.523345 44.7705C0.00297891 43.5243 -0.133173 42.1529 0.132108 40.83C0.397388 39.507 1.05219 38.2917 2.0137 37.3379C2.97521 36.3841 4.20025 35.7345 5.5339 35.4714C6.86755 35.2082 8.24992 35.3433 9.5062 35.8595C10.7625 36.3757 11.8362 37.2499 12.5917 38.3714C13.3471 39.493 13.7504 40.8116 13.7504 42.1605C13.7483 43.9687 13.0233 45.7022 11.7344 46.9808C10.4455 48.2594 8.69795 48.9786 6.87518 48.9807Z"/>
<path d="M49.7983 37.1553V37.8198H55.4198V33.9331L49.7983 37.1553Z"/>
<path d="M60.2502 41.5403H46.0474V35.008L54.9311 29.9203C55.7887 29.4375 56.4236 28.643 56.7017 27.7045C56.9798 26.7661 56.8794 25.7571 56.4216 24.8908C56.1832 24.4535 55.8588 24.068 55.4677 23.7572C55.0767 23.4463 54.6267 23.2163 54.1445 23.0809C53.6623 22.9454 53.1577 22.9072 52.6603 22.9684C52.163 23.0297 51.6831 23.1892 51.249 23.4375L40.4233 29.6376C39.8545 29.9651 39.383 30.4358 39.0565 31.002C38.73 31.5683 38.56 32.2101 38.5638 32.8625H38.548V37.8198H18.6247C17.9688 37.819 17.3177 37.9323 16.7012 38.1546C17.3733 39.7731 17.6273 41.5326 17.4402 43.2732C17.2532 45.0139 16.6309 46.6806 15.6299 48.1222C16.5261 48.6836 17.5647 48.981 18.6247 48.9797H60.1721C61.1582 48.9873 62.1086 48.6144 62.8227 47.9398C63.5367 47.2652 63.9585 46.3417 63.999 45.3644C64.0134 44.8671 63.9271 44.3719 63.7452 43.9082C63.5633 43.4446 63.2894 43.0218 62.9399 42.665C62.5903 42.3082 62.1722 42.0246 61.7102 41.831C61.2482 41.6374 60.7517 41.5376 60.2502 41.5377V41.5403Z"/>
<path d="M49.3415 16.914C48.1589 16.166 46.8626 15.6119 45.5024 15.2728C44.4509 16.3331 43.196 17.1738 41.8117 17.7453C40.4275 18.3168 38.9419 18.6075 37.4425 18.6002C35.9432 18.593 34.4605 18.288 33.0819 17.7033C31.7033 17.1185 30.4567 16.2658 29.4156 15.1954C26.5084 15.8457 23.9107 17.4577 22.0494 19.7665C20.1882 22.0754 19.1741 24.9437 19.1738 27.9V30.3786C19.1738 31.3652 19.5689 32.3113 20.2721 33.0089C20.9753 33.7064 21.9291 34.0983 22.9235 34.0983H32.9233C33.4207 34.0983 33.8976 33.9023 34.2493 33.5535C34.601 33.2046 34.7986 32.7314 34.7986 32.2381C34.7986 31.7449 34.6011 31.272 34.2496 30.9233C33.8981 30.5745 33.4213 30.3786 32.9242 30.3786H26.6741C26.1768 30.3786 25.6998 30.1826 25.3481 29.8338C24.9964 29.4849 24.7988 29.0117 24.7988 28.5183V24.8508C24.793 24.366 24.9748 23.8975 25.3066 23.5416C25.6385 23.1857 26.0953 22.9695 26.5829 22.9375C26.8365 22.9254 27.0898 22.9644 27.3277 23.0523C27.5656 23.1402 27.783 23.2751 27.9668 23.4487C28.1505 23.6224 28.2969 23.8313 28.3969 24.0628C28.4969 24.2942 28.5484 24.5434 28.5485 24.7952V26.6555H32.9233C34.277 26.655 35.5851 27.141 36.6055 28.0235C37.1547 27.3794 37.8116 26.834 38.5474 26.4111L49.3731 20.211L51.7402 18.8551C51.0203 18.1168 50.2152 17.4653 49.3415 16.914Z"/>
<path d="M37.5003 14.8797C36.0169 14.8797 34.5668 14.4433 33.3333 13.6258C32.0999 12.8082 31.1386 11.6462 30.5709 10.2867C30.0033 8.92717 29.8547 7.43117 30.1441 5.9879C30.4335 4.54463 31.1479 3.2189 32.1968 2.17836C33.2457 1.13781 34.5821 0.429197 36.037 0.142112C37.492 -0.144973 39 0.00236901 40.3705 0.565506C41.741 1.12864 42.9124 2.08228 43.7365 3.30583C44.5607 4.52938 45.0005 5.96788 45.0005 7.43943C44.9984 9.41208 44.2076 11.3033 42.8015 12.6982C41.3953 14.0931 39.4888 14.8776 37.5003 14.8797Z"/>
</svg>
