<svg width="39" height="51" viewBox="0 0 39 51" fill="none" xmlns="http://www.w3.org/2000/svg">
<path d="M38.6714 41.5301C37.5436 38.1735 33.0484 36.0723 29.8436 34.6639C28.588 34.114 25.1121 33.1811 24.6944 31.6002C24.5448 31.0307 24.565 30.4936 24.6876 29.979C24.4944 30.0159 24.2984 30.0378 24.0957 30.0378H22.0075C20.3404 30.0378 18.9857 28.6815 18.9857 27.0155C18.9857 25.3506 20.3409 23.9971 22.0075 23.9971H24.0957C24.7856 23.9971 25.4397 24.2306 25.9672 24.6472C26.7406 24.5442 27.4865 24.379 28.182 24.1623C29.0954 22.2488 29.8077 19.9606 29.9673 17.9911C30.6488 9.56419 25.4828 4.63395 18.0757 5.48627C12.6902 6.10619 9.47299 10.1219 9.12523 15.2919C8.77355 20.5615 10.7274 24.4535 12.8028 27.3084C13.7116 28.5566 14.6664 29.3591 14.5197 30.8632C14.3495 32.6418 12.4477 33.1374 11.0875 33.684C9.47579 34.3313 7.73979 35.3136 6.91995 35.7677C4.09587 37.3273 0.996275 39.2055 0.299635 41.7748C-1.24317 47.4689 3.96707 49.1937 8.26843 49.99C11.96 50.671 16.1224 50.7247 19.5463 50.7247C25.7393 50.7247 36.8755 50.4767 38.6714 45.8214C39.1821 44.5004 38.9632 42.3953 38.6714 41.5301Z" fill="#8BD7DE"/>
<path d="M25.4174 26.1648C25.134 25.733 24.6496 25.4463 24.0969 25.4463H22.0087C21.1373 25.4463 20.4345 26.1502 20.4345 27.0171C20.4345 27.8873 21.1373 28.5924 22.0087 28.5924H24.0969C24.7067 28.5924 25.2242 28.2446 25.4851 27.7417C28.3966 27.5127 30.9289 26.6234 32.7063 25.3102C33.1146 25.5734 33.5973 25.7274 34.1181 25.7274H34.2491C35.7006 25.7274 36.8744 24.5525 36.8744 23.0993V17.8533C36.8744 16.8083 36.2618 15.9067 35.3781 15.4878C34.9928 7.06375 28.0191 0.324707 19.5004 0.324707C10.9817 0.324707 4.00689 7.06375 3.62329 15.4878C2.73793 15.9073 2.12585 16.8083 2.12585 17.8533V23.0993C2.12585 24.5525 3.30073 25.7274 4.74889 25.7274H4.88161C6.33089 25.7274 7.50633 24.5525 7.50633 23.0993V17.8533C7.50633 16.8234 6.91105 15.9353 6.04585 15.5057C6.42049 8.40775 12.3106 2.75007 19.5004 2.75007C26.6875 2.75007 32.5803 8.40775 32.9533 15.5057C32.0892 15.9358 31.4945 16.8234 31.4945 17.8533V23.0993C31.4945 23.4477 31.5623 23.7719 31.6815 24.0749C30.1516 25.1697 27.9245 25.9497 25.4174 26.1648Z" fill="#8BD7DE"/>
</svg>
