<svg fill="currentColor" style="fill: currentColor" width="64" height="52" viewBox="0 0 64 52" xmlns="http://www.w3.org/2000/svg">
<g clip-path="url(#clip0_91_1908)">
<path fill-rule="evenodd" clip-rule="evenodd" d="M40.2413 19.7656C38.3828 19.7674 36.6009 20.5081 35.2868 21.8253C33.9727 23.1425 33.2336 24.9284 33.2318 26.7912V49.9924C33.2318 50.3912 33.3899 50.7736 33.6712 51.0555C33.9525 51.3375 34.334 51.4959 34.7319 51.4959C35.1297 51.4959 35.5112 51.3375 35.7925 51.0555C36.0738 50.7736 36.2319 50.3912 36.2319 49.9924V26.7912C36.2339 25.9444 36.5024 25.1199 36.9992 24.435C37.4959 23.7501 38.1956 23.2397 38.9986 22.9765C39.0756 23.0399 39.1588 23.0955 39.2468 23.1424C40.6268 23.8771 42.3014 25.0281 42.4437 26.3367C42.586 27.6453 41.1894 29.1562 39.9881 30.1912C39.7678 30.3814 39.6069 30.6313 39.5248 30.911C39.0058 32.7061 39.0799 34.6214 39.7359 36.3709C40.392 38.1204 41.595 39.6103 43.1652 40.6184C44.5828 41.5443 46.2371 42.0402 47.9292 42.0464C50.1338 41.989 52.269 41.2614 54.0517 39.9599C57.5211 37.3692 60.2202 33.8795 61.8587 29.8661C63.7342 25.8486 64.3769 21.3634 63.7054 16.9793C62.9233 12.247 60.5589 7.9219 57.0004 4.71439C54.1343 2.25755 50.5549 0.79142 46.7924 0.533217C44.4632 0.343161 42.1235 0.735822 39.9832 1.67595C39.0199 2.07358 38.1482 2.66492 37.4219 3.41345C36.6956 4.16197 36.1301 5.05179 35.7603 6.02795C35.0156 8.26366 34.9859 12.7749 42.8855 18.1718C42.73 18.7589 41.8116 19.3327 40.9263 19.7673L40.2413 19.7656ZM0.301061 16.9726C-0.370865 21.3569 0.272486 25.8424 2.14939 29.8595C3.78699 33.8729 6.48559 37.3627 9.95476 39.9533C11.7362 41.25 13.8681 41.9747 16.069 42.0315C17.7605 42.0251 19.4142 41.5292 20.8313 40.6035C22.4015 39.5954 23.6045 38.1054 24.2606 36.3559C24.9166 34.6064 24.9907 32.6912 24.4717 30.896C24.3895 30.6165 24.2287 30.3665 24.0084 30.1762C22.807 29.1446 21.4071 27.6403 21.5528 26.3218C21.6984 25.0033 23.373 23.8622 24.7514 23.1275C24.8394 23.0806 24.9225 23.025 24.9996 22.9616C25.8027 23.2246 26.5025 23.7349 26.9993 24.4198C27.4961 25.1048 27.7645 25.9294 27.7663 26.7762V49.9924C27.7663 50.3912 27.9243 50.7736 28.2056 51.0555C28.4869 51.3375 28.8685 51.4959 29.2663 51.4959C29.6641 51.4959 30.0456 51.3375 30.327 51.0555C30.6083 50.7736 30.7663 50.3912 30.7663 49.9924V26.7912C30.7645 24.9284 30.0255 23.1425 28.7113 21.8253C27.3972 20.5081 25.6153 19.7674 23.7569 19.7656H23.0685C22.1832 19.3344 21.2665 18.7589 21.1093 18.1701C29.009 12.7732 28.9792 8.262 28.2346 6.02629C27.8643 5.05079 27.2986 4.16166 26.5723 3.41374C25.846 2.66582 24.9746 2.07496 24.0117 1.6776C21.8714 0.737412 19.5316 0.344749 17.2025 0.534875C13.442 0.794122 9.86462 2.25954 6.99941 4.71439C3.44479 7.92127 1.0829 12.2436 0.301061 16.9726Z"/>
<path fill-rule="evenodd" clip-rule="evenodd" d="M40.2413 19.7656C38.3828 19.7674 36.6009 20.5081 35.2868 21.8253C33.9727 23.1425 33.2336 24.9284 33.2318 26.7912V49.9924C33.2318 50.3912 33.3899 50.7736 33.6712 51.0555C33.9525 51.3375 34.334 51.4959 34.7319 51.4959C35.1297 51.4959 35.5112 51.3375 35.7925 51.0555C36.0738 50.7736 36.2319 50.3912 36.2319 49.9924V26.7912C36.2339 25.9444 36.5024 25.1199 36.9992 24.435C37.4959 23.7501 38.1956 23.2397 38.9986 22.9765C39.0756 23.0399 39.1588 23.0955 39.2468 23.1424C40.6268 23.8771 42.3014 25.0281 42.4437 26.3367C42.586 27.6453 41.1894 29.1562 39.9881 30.1912C39.7678 30.3814 39.6069 30.6313 39.5248 30.911C39.0058 32.7061 39.0799 34.6214 39.7359 36.3709C40.392 38.1204 41.595 39.6103 43.1652 40.6184C44.5828 41.5443 46.2371 42.0402 47.9292 42.0464C50.1338 41.989 52.269 41.2614 54.0517 39.9599C57.5211 37.3692 60.2202 33.8795 61.8587 29.8661C63.7342 25.8486 64.3769 21.3634 63.7054 16.9793C62.9233 12.247 60.5589 7.9219 57.0004 4.71439C54.1343 2.25755 50.5549 0.79142 46.7924 0.533217C44.4632 0.343161 42.1235 0.735822 39.9832 1.67595C39.0199 2.07358 38.1482 2.66492 37.4219 3.41345C36.6956 4.16197 36.1301 5.05179 35.7603 6.02795C35.0156 8.26366 34.9859 12.7749 42.8855 18.1718C42.73 18.7589 41.8116 19.3327 40.9263 19.7673L40.2413 19.7656ZM0.301061 16.9726C-0.370865 21.3569 0.272486 25.8424 2.14939 29.8595C3.78699 33.8729 6.48559 37.3627 9.95476 39.9533C11.7362 41.25 13.8681 41.9747 16.069 42.0315C17.7605 42.0251 19.4142 41.5292 20.8313 40.6035C22.4015 39.5954 23.6045 38.1054 24.2606 36.3559C24.9166 34.6064 24.9907 32.6912 24.4717 30.896C24.3895 30.6165 24.2287 30.3665 24.0084 30.1762C22.807 29.1446 21.4071 27.6403 21.5528 26.3218C21.6984 25.0033 23.373 23.8622 24.7514 23.1275C24.8394 23.0806 24.9225 23.025 24.9996 22.9616C25.8027 23.2246 26.5025 23.7349 26.9993 24.4198C27.4961 25.1048 27.7645 25.9294 27.7663 26.7762V49.9924C27.7663 50.3912 27.9243 50.7736 28.2056 51.0555C28.4869 51.3375 28.8685 51.4959 29.2663 51.4959C29.6641 51.4959 30.0456 51.3375 30.327 51.0555C30.6083 50.7736 30.7663 50.3912 30.7663 49.9924V26.7912C30.7645 24.9284 30.0255 23.1425 28.7113 21.8253C27.3972 20.5081 25.6153 19.7674 23.7569 19.7656H23.0685C22.1832 19.3344 21.2665 18.7589 21.1093 18.1701C29.009 12.7732 28.9792 8.262 28.2346 6.02629C27.8643 5.05079 27.2986 4.16166 26.5723 3.41374C25.846 2.66582 24.9746 2.07496 24.0117 1.6776C21.8714 0.737412 19.5316 0.344749 17.2025 0.534875C13.442 0.794122 9.86462 2.25954 6.99941 4.71439C3.44479 7.92127 1.0829 12.2436 0.301061 16.9726Z"/>
</g>
<defs>
<clipPath id="clip0_91_1908">
<rect width="64" height="51" transform="translate(0 0.5)"/>
</clipPath>
</defs>
</svg>
