<svg width="24" height="25" viewBox="0 0 24 25" fill="none" xmlns="http://www.w3.org/2000/svg">
<g clip-path="url(#clip0_102_1266)">
<path d="M17.5071 14.8321L17.4981 14.9071C15.2991 13.8111 15.0691 13.6651 14.7851 14.0911C14.5881 14.3861 14.0141 15.0551 13.8411 15.2531C13.6661 15.4481 13.4921 15.4631 13.1951 15.3281C12.8951 15.1781 11.9321 14.8631 10.7921 13.8431C9.90414 13.0481 9.30814 12.0731 9.13214 11.7731C8.83914 11.2671 9.45214 11.1951 10.0101 10.1391C10.1101 9.92907 10.0591 9.76407 9.98514 9.61507C9.91014 9.46507 9.31314 7.99507 9.06314 7.40907C8.82314 6.82507 8.57614 6.89907 8.39114 6.89907C7.81514 6.84907 7.39414 6.85707 7.02314 7.24307C5.40914 9.01707 5.81614 10.8471 7.19714 12.7931C9.91114 16.3451 11.3571 16.9991 14.0011 17.9071C14.7151 18.1341 15.3661 18.1021 15.8811 18.0281C16.4551 17.9371 17.6481 17.3071 17.8971 16.6021C18.1521 15.8971 18.1521 15.3121 18.0771 15.1771C18.0031 15.0421 17.8071 14.9671 17.5071 14.8321Z" fill="white"/>
<path d="M20.5201 3.97287C12.8311 -3.46013 0.106122 1.93087 0.101122 12.4169C0.101122 14.5129 0.650122 16.5569 1.69612 18.3619L0.00012207 24.5239L6.33512 22.8719C14.2401 27.1419 23.9961 21.4719 24.0001 12.4229C24.0001 9.24687 22.7601 6.25787 20.5051 4.01187L20.5201 3.97287ZM22.0021 12.3899C21.9961 20.0229 13.6171 24.7899 6.99012 20.8939L6.63012 20.6799L2.88012 21.6549L3.88512 18.0099L3.64612 17.6349C-0.477878 11.0699 4.26012 2.48987 12.0721 2.48987C14.7261 2.48987 17.2171 3.52487 19.0931 5.39987C20.9681 7.25887 22.0021 9.74987 22.0021 12.3899Z" fill="white"/>
</g>
<defs>
<clipPath id="clip0_102_1266">
<rect width="24" height="24" fill="white" transform="translate(0.00012207 0.524902)"/>
</clipPath>
</defs>
</svg>
