<svg width="103" height="118" viewBox="0 0 103 118" fill="none" xmlns="http://www.w3.org/2000/svg">
<g clip-path="url(#clip0_102_1206)">
<path d="M77.275 7.21111C76.6576 7.09153 76.1227 6.60057 75.5348 6.35399C74.4955 5.81742 73.4439 5.30005 72.355 4.87389C69.0735 3.53541 65.608 2.71276 62.0969 2.30973C50.276 0.961649 37.908 5.6051 29.932 14.5558C23.3587 21.7097 19.8435 31.6187 20.1981 41.3519C20.6118 44.3847 20.9737 47.4379 21.9034 50.3666C25.987 63.9618 38.2449 74.3823 52.1129 76.4073C52.8747 76.5053 53.6349 76.6493 54.4038 76.667C54.6449 76.6772 54.7631 76.4241 54.9004 76.2635C58.7285 70.8648 61.6226 64.6527 62.5863 58.0452C64.0635 48.2446 58.7473 39.0766 53.4545 31.2975C53.4547 31.1153 53.6701 31.2451 53.7569 31.294C58.168 33.6851 62.7378 35.8316 67.5284 37.3248C72.4014 38.8368 76.5582 39.2904 80.397 35.2763C84.5011 31.0343 86.3042 25.0498 87.1818 19.3094C87.2086 19.1796 87.1859 18.9723 87.3482 18.9371C87.3575 18.9354 87.3778 18.9522 87.3812 18.964C88.1993 24.3862 87.5554 29.9621 86.3948 35.2905C82.6625 52.8075 70.5112 67.2053 55.5031 76.2301C55.4023 76.2925 55.2959 76.3477 55.2029 76.4206C55.1168 76.4881 54.9565 76.5236 54.9986 76.6716C55.0331 76.7931 55.1736 76.7567 55.2709 76.7652C57.3169 77.0021 59.3811 76.9594 61.4236 76.7045C64.0629 76.4963 66.676 75.9921 69.2112 75.2218C76.5804 72.9695 83.2214 68.4207 87.9855 62.3015C90.7011 58.8597 92.7126 54.9008 94.1121 50.7426C88.7846 73.5388 63.2687 86.3678 41.5227 78.5938C7.07827 66.2941 4.93558 19.3212 38.2712 4.06238C50.6659 -1.51108 65.9893 -0.528272 77.2699 7.22137L77.275 7.21133V7.21111Z" fill="white"/>
<path d="M46.6091 55.2762C32.9715 55.7235 21.1659 49.4304 31.7503 35.197C42.6558 22.038 58.9654 14.5375 74.9517 9.74153C75.4342 9.60123 75.914 9.45088 76.4105 9.36818C76.4355 9.36709 76.4617 9.41793 76.4433 9.43626C65.7329 14.5587 54.9366 19.9091 45.742 27.5726C31.0904 39.7069 35.9632 49.6495 52.7823 54.3196C54.9841 54.8472 52.0459 54.8649 51.4344 54.981C49.8301 55.1363 48.2211 55.2592 46.6091 55.2758V55.2762Z" fill="white"/>
<path d="M72.0872 21.5743C78.9851 21.5335 80.6944 31.1179 74.1337 33.4261C65.0387 36.031 62.5775 22.1164 72.0872 21.5743Z" fill="white"/>
<path d="M60.3608 56.9604C60.3027 59.165 60.3411 61.7863 58.6188 63.2655C53.6228 65.3714 48.0683 66.1328 42.7952 64.666C42.5229 64.5935 42.6584 64.4168 42.8783 64.3869C44.9897 63.9459 47.0737 63.3644 49.1109 62.651C59.7671 59.1458 60.3936 51.932 60.361 56.9602L60.3608 56.9604Z" fill="white"/>
<path d="M22.5238 52.8942C22.5214 52.8667 22.5188 52.8488 22.556 52.8554V52.8942H22.5238Z" fill="white"/>
<path d="M11.0458 89.0513C8.66936 90.9546 6.41014 93.4644 4.26767 96.5804C1.75574 100.242 0.5 103.275 0.5 105.679C0.5 106.636 0.752487 107.488 1.25725 108.233C2.04513 109.402 3.15953 109.986 4.60022 109.986C6.0409 109.986 7.44447 109.469 8.99586 108.433C10.3746 107.51 11.6368 106.319 12.7819 104.861C14.1606 103.114 14.8503 101.989 14.8503 101.489C14.8503 101.255 14.7148 101.138 14.444 101.138C14.1975 101.138 13.9824 101.299 13.7976 101.622C13.6375 101.912 13.2741 102.401 12.7079 103.091C11.8459 104.171 11.1133 104.994 10.5101 105.562C8.49067 107.432 6.81627 108.366 5.48651 108.366C4.72301 108.366 4.07647 108.072 3.54732 107.482C3.06717 106.959 2.82698 106.324 2.82698 105.578C2.82698 104.02 3.36864 102.139 4.45218 99.9357C5.49859 97.8102 7.02539 95.651 9.03255 93.4585C10.6085 91.7333 12.1045 90.37 13.5206 89.3684C14.764 88.4781 15.7245 88.0328 16.4017 88.0328C16.734 88.0328 16.9833 88.1161 17.1497 88.2833C17.3158 88.4502 17.3991 88.7064 17.3991 89.0511C17.3991 89.8971 16.9373 90.9321 16.0139 92.1562C15.3859 93.0022 14.5426 93.7812 13.4837 94.4934C12.7325 94.9942 12.357 95.4396 12.357 95.8289C12.357 96.0405 12.4368 96.2295 12.5969 96.3966C12.8188 96.6303 13.0587 96.7473 13.3173 96.7473C13.7111 96.7473 14.2528 96.4412 14.9425 95.8291C15.9889 94.8834 16.8631 93.8148 17.5651 92.6238C18.3653 91.2439 18.7656 90.0141 18.7656 88.9344C18.7656 88.3334 18.5869 87.8217 18.23 87.3984C17.7867 86.8643 17.1525 86.5972 16.3277 86.5972C14.8622 86.5972 13.1017 87.4152 11.0455 89.0511L11.0458 89.0513Z" fill="white"/>
<path d="M21.1616 100.821C23.0825 99.2073 24.7321 97.5934 26.1112 95.9796C29.1892 92.3514 30.7283 89.7582 30.7283 88.2C30.7283 87.866 30.6053 87.5714 30.3591 87.3152C30.1249 87.0592 29.8234 86.9312 29.454 86.9312C28.2967 86.9312 26.8376 87.9775 25.0769 90.0698C22.8727 92.6739 20.7119 95.9852 18.5943 100.003C17.7692 101.583 17.1473 102.924 16.7289 104.026C16.3104 105.128 16.1009 105.991 16.1009 106.614C16.1009 106.981 16.2056 107.293 16.4149 107.548C16.7105 107.905 17.0923 108.083 17.5601 108.083C18.6432 108.083 19.8194 107.321 21.0876 105.796C22.3065 104.338 22.9159 103.37 22.9159 102.891C22.9159 102.613 22.7558 102.474 22.4357 102.474C22.1524 102.474 21.8818 102.663 21.623 103.041C20.9702 103.998 20.478 104.661 20.1456 105.028C19.4439 105.785 18.8711 106.163 18.4281 106.163C18.1327 106.163 17.9848 106.024 17.9848 105.746C17.9848 105.534 18.0772 105.161 18.2619 104.627C18.4466 104.093 18.7237 103.392 19.0932 102.524C19.9672 101.811 20.6567 101.244 21.1616 100.821ZM24.8 92.5238C26.5851 90.0864 27.8165 88.8677 28.4937 88.8677C28.7274 88.8677 28.8446 88.9904 28.8446 89.235C28.8446 89.7469 28.321 90.7875 27.2748 92.3569C25.2554 95.3843 22.9653 97.8884 20.4044 99.8693C21.8572 96.9757 23.3225 94.5272 24.8 92.5238Z" fill="white"/>
<path d="M28.9134 98.3837C28.6918 98.584 28.3592 98.9791 27.916 99.5687C26.537 101.372 25.54 103.019 24.9239 104.51C24.1362 106.403 23.7419 107.515 23.7419 107.849C23.7419 108.016 23.8097 108.172 23.945 108.317C24.0928 108.495 24.2899 108.584 24.5361 108.584C24.955 108.584 25.2629 108.306 25.4595 107.749C25.9028 106.491 26.4136 105.267 26.9926 104.076C27.5342 102.919 28.4453 101.444 29.7259 99.6523C30.0828 99.1849 30.2615 98.8511 30.2615 98.6505C30.2615 98.5281 30.2121 98.4059 30.1137 98.2833C29.9779 98.1388 29.8057 98.0662 29.5964 98.0662C29.3623 98.0662 29.1348 98.172 28.9132 98.3834L28.9134 98.3837ZM31.8131 92.5405C31.1603 93.1414 30.8342 93.7092 30.8342 94.2434C30.8342 94.4548 30.908 94.6331 31.0559 94.7776C31.2037 94.9336 31.3945 95.0113 31.6284 95.0113C32.1085 95.0113 32.6073 94.7387 33.1245 94.1932C33.6662 93.6256 33.937 93.1083 33.937 92.6407C33.937 92.1287 33.6599 91.8726 33.106 91.8726C32.7242 91.8726 32.2933 92.0954 31.8131 92.5403V92.5405Z" fill="white"/>
<path d="M34.9845 100.487C35.3415 100.031 35.5202 99.6804 35.5202 99.4353C35.5202 99.2348 35.4338 99.0572 35.2616 98.9009C35.1138 98.7674 34.9599 98.7006 34.8 98.7006C34.4675 98.7006 34.0672 99.0068 33.5995 99.6188C33.1315 100.242 32.4914 101.244 31.6787 102.624C30.1642 105.173 29.4072 106.747 29.4072 107.348C29.4072 107.593 29.4933 107.794 29.6657 107.949C29.8014 108.083 29.9736 108.15 30.183 108.15C30.6016 108.15 30.9955 107.855 31.3649 107.265C32.8054 104.805 34.3628 103.091 36.0374 102.123C34.7817 103.948 34.1537 105.612 34.1537 107.114C34.1537 107.893 34.3199 108.556 34.6524 109.101C34.9971 109.68 35.4218 109.969 35.9267 109.969C36.1484 109.969 36.3391 109.891 36.4992 109.736C36.6471 109.613 36.7209 109.485 36.7209 109.352C36.7209 109.207 36.6346 109.007 36.4623 108.751C36.0931 108.194 35.9082 107.61 35.9082 106.998C35.9082 105.106 37.0838 102.919 39.4356 100.437C39.8664 99.9808 40.082 99.5855 40.082 99.2516C40.082 98.7733 39.842 98.5337 39.3616 98.5337C38.4872 98.5337 36.7636 99.669 34.1904 101.939C34.0426 102.073 33.8887 102.206 33.7288 102.34C34.0488 101.783 34.4675 101.166 34.9845 100.487V100.487Z" fill="white"/>
<path d="M44.7679 98.3837C44.5462 98.584 44.2139 98.9791 43.7706 99.5687C42.3915 101.372 41.3945 103.019 40.7786 104.51C39.9907 106.403 39.5966 107.515 39.5966 107.849C39.5966 108.016 39.6644 108.172 39.7997 108.317C39.9475 108.495 40.1445 108.584 40.3908 108.584C40.8094 108.584 41.1174 108.306 41.3142 107.749C41.7574 106.491 42.2682 105.267 42.8472 104.076C43.3889 102.919 44.3 101.444 45.5806 99.6523C45.9375 99.1849 46.1162 98.8511 46.1162 98.6505C46.1162 98.5281 46.0668 98.4059 45.9684 98.2833C45.8328 98.1388 45.6604 98.0662 45.4513 98.0662C45.2172 98.0662 44.9895 98.172 44.7679 98.3834V98.3837ZM47.6676 92.5405C47.0148 93.1414 46.6887 93.7092 46.6887 94.2434C46.6887 94.4548 46.7625 94.6331 46.9103 94.7776C47.0582 94.9336 47.2489 95.0113 47.4828 95.0113C47.963 95.0113 48.4617 94.7387 48.9788 94.1932C49.5204 93.6256 49.7913 93.1083 49.7913 92.6407C49.7913 92.1287 49.5142 91.8726 48.9602 91.8726C48.5785 91.8726 48.1477 92.0954 47.6674 92.5403L47.6676 92.5405Z" fill="white"/>
<path d="M48.1031 110.611C48.4693 109.713 48.9795 109.265 49.6344 109.265C49.9229 109.265 50.2835 109.349 50.7162 109.517C51.9813 109.999 52.9023 110.302 53.4793 110.426C54.0562 110.549 54.6777 110.611 55.3434 110.611C56.6859 110.611 57.9235 110.313 59.0552 109.719C60.1871 109.125 61.0553 108.286 61.6599 107.204C62.2646 106.122 62.5671 105.003 62.5671 103.848C62.5671 102.827 62.3229 101.866 61.8347 100.963C61.3464 100.06 60.2728 98.8037 58.6139 97.1942C56.9548 95.5849 55.8952 94.4243 55.4349 93.7118C54.9742 92.9998 54.7442 92.2511 54.7442 91.466C54.7442 90.569 55.1045 89.7782 55.8262 89.0939C56.5472 88.41 57.4848 88.0677 58.6389 88.0677C60.0926 88.0677 61.2631 88.4995 62.1511 89.363C63.0387 90.2266 63.4826 91.3371 63.4826 92.6939C63.4826 93.1089 63.4601 93.6529 63.4159 94.3256H63.9817L65.7127 86.7554H65.0802C64.7694 87.305 64.4977 87.6638 64.2646 87.832C64.0316 88.0002 63.7541 88.0845 63.4323 88.0845C63.2435 88.0845 63.0715 88.0677 62.9163 88.0339C62.8496 88.0116 62.4944 87.8713 61.8511 87.6134C60.9411 87.2322 60.314 87.0076 59.9702 86.9404C59.4152 86.8171 58.8273 86.7554 58.206 86.7554C56.364 86.7554 54.8549 87.3218 53.6787 88.4545C52.5024 89.5875 51.9144 90.9502 51.9144 92.5425C51.9144 93.5408 52.1696 94.4941 52.68 95.4025C52.9906 95.9522 53.6954 96.7877 54.7938 97.909C57.0575 100.253 58.4499 101.891 58.9717 102.821C59.3155 103.45 59.4877 104.145 59.4877 104.907C59.4877 106.085 59.1102 107.125 58.3558 108.028C57.6011 108.931 56.4971 109.382 55.0435 109.382C53.4789 109.382 52.2111 108.9 51.2402 107.936C50.2691 106.971 49.7838 105.721 49.7838 104.184C49.7838 103.646 49.8226 102.967 49.9003 102.148H49.3345L47.4702 110.61H48.1027L48.1031 110.611Z" fill="white"/>
<path d="M79.1322 96.3278C78.1836 95.352 76.9766 94.8643 75.5119 94.8643C74.0473 94.8643 72.5298 95.3465 70.9596 96.311C69.3892 97.2757 68.1354 98.5877 67.198 100.248C66.2601 101.908 65.7916 103.562 65.7916 105.211C65.7916 106.77 66.2716 108.04 67.2314 109.021C68.1911 110.002 69.4311 110.493 70.9516 110.493C72.4722 110.493 73.9696 110.011 75.5454 109.046C77.121 108.082 78.3499 106.775 79.2321 105.127C80.1143 103.478 80.5554 101.812 80.5554 100.13C80.5554 98.5714 80.0811 97.3038 79.1324 96.328L79.1322 96.3278ZM75.7368 106.127C74.3663 108.477 72.8988 109.652 71.3343 109.652C70.5241 109.652 69.8528 109.363 69.3202 108.785C68.7876 108.208 68.5213 107.386 68.5213 106.321C68.5213 103.988 69.2065 101.641 70.577 99.2801C71.9473 96.9193 73.4482 95.7388 75.0793 95.7388C75.8784 95.7388 76.5299 96.0164 77.0351 96.5717C77.5398 97.1269 77.7923 97.9259 77.7923 98.969C77.7923 101.392 77.1071 103.778 75.7368 106.127Z" fill="white"/>
<path d="M90.0047 95.2682C90.8036 92.6438 91.353 91.0009 91.6525 90.3391C92.2406 89.0717 92.9061 88.1408 93.65 87.5462C94.2046 87.0978 94.8317 86.8735 95.5307 86.8735C95.808 86.8735 96.0188 86.9296 96.1632 87.0417C96.2631 87.1203 96.313 87.2379 96.313 87.395C96.313 87.4849 96.2409 87.6617 96.0965 87.9248C95.9522 88.1884 95.8803 88.4101 95.8803 88.5893C95.8803 88.8697 95.9884 89.1108 96.2049 89.3126C96.4213 89.5145 96.7014 89.6153 97.0454 89.6153C97.4449 89.6153 97.772 89.4809 98.0273 89.2116C98.2826 88.9425 98.4103 88.6117 98.4103 88.219C98.4103 87.7143 98.1548 87.2462 97.6447 86.8141C97.1343 86.3825 96.4571 86.1665 95.6142 86.1665C94.8153 86.1665 93.9633 86.4164 93.0591 86.9152C92.1547 87.4142 91.2919 88.1629 90.471 89.161C89.8718 89.9011 89.2446 90.9442 88.5901 92.2901C88.1015 93.2884 87.7051 93.9696 87.4 94.334C87.0946 94.6986 86.7593 94.9454 86.393 95.0742C86.0268 95.2034 85.3831 95.2677 84.4623 95.2677L84.2292 96.3782H87.1253L84.2292 107.767C83.5522 110.403 83.1362 111.956 82.9808 112.427C82.6146 113.56 82.2264 114.426 81.8157 115.026C81.4055 115.626 80.9363 116.078 80.4093 116.381C79.8823 116.684 79.3802 116.835 78.9028 116.835C78.6922 116.835 78.5366 116.796 78.4369 116.717C78.3594 116.661 78.3204 116.583 78.3204 116.482C78.3204 116.403 78.4093 116.285 78.5867 116.129C78.8197 115.915 78.9363 115.685 78.9363 115.439C78.9363 115.192 78.8338 114.973 78.6283 114.783C78.4233 114.592 78.1706 114.497 77.8711 114.497C77.4608 114.497 77.1138 114.628 76.8309 114.892C76.548 115.155 76.4064 115.467 76.4064 115.826C76.4064 116.274 76.5786 116.639 76.9224 116.919C77.3885 117.323 77.9544 117.525 78.6201 117.525C79.6413 117.525 80.662 117.16 81.6828 116.431C83.0253 115.478 84.2793 113.751 85.4446 111.25C86.2657 109.478 87.0812 106.971 87.8914 103.73L89.7222 96.3782H92.1523L92.4521 95.2677H90.0051L90.0047 95.2682Z" fill="white"/>
<path d="M100.453 90.6921C99.4542 92.3407 98.5498 93.4989 97.7399 94.166C96.9297 94.8335 95.9144 95.3353 94.6938 95.6716L94.5274 96.3278H97.0407L94.2609 106.068C93.9057 107.313 93.7283 108.238 93.7283 108.844C93.7283 109.327 93.8835 109.722 94.1943 110.03C94.5048 110.338 94.9042 110.493 95.3926 110.493C96.0251 110.493 96.6518 110.28 97.2735 109.853C98.1833 109.237 99.1486 108.177 100.17 106.674L99.6203 106.253C98.6993 107.409 98.1059 108.098 97.8393 108.322C97.3844 108.715 97.018 108.911 96.7409 108.911C96.6186 108.911 96.5132 108.861 96.4245 108.76C96.3356 108.659 96.2914 108.513 96.2914 108.322C96.2914 108.009 96.4466 107.319 96.7575 106.253L99.6203 96.3275H102.217L102.5 95.2677H99.8866L101.185 90.6919H100.453L100.453 90.6921Z" fill="white"/>
</g>
<defs>
<clipPath id="clip0_102_1206">
<rect width="102" height="117" fill="white" transform="translate(0.5 0.524902)"/>
</clipPath>
</defs>
</svg>
